<?xml version="1.0" encoding="utf-8"?>
<!-- Generator: Adobe Illustrator 26.0.1, SVG Export Plug-In . SVG Version: 6.00 Build 0)  -->
<svg version="1.1" xmlns="http://www.w3.org/2000/svg" xmlns:xlink="http://www.w3.org/1999/xlink" x="0px" y="0px"
	 viewBox="0 0 123.7 123.7" style="enable-background:new 0 0 123.7 123.7;" xml:space="preserve">
<style type="text/css">
	.st0{display:none;}
	.st1{display:inline;}
	.st2{fill:#FFFFFF;}
	.st3{fill:none;stroke:#FFFFFF;stroke-width:1.5241;stroke-miterlimit:10;}
	.st4{fill:#52C8EB;stroke:#FFFFFF;stroke-miterlimit:10;}
	.st5{fill:none;stroke:#FFFFFF;stroke-miterlimit:10;}
	.st6{fill:none;}
	.st7{font-family:'ArialMT';}
	.st8{font-size:12px;}
	.st9{fill:#D450FF;stroke:#FFFFFF;stroke-miterlimit:10;}
</style>
<g id="Layer_3">
</g>
<g id="Layer_1">
	<g id="Layer_1_00000160876464085163967450000014991979441060801928_" class="st0">
		<g id="Layer_2_00000059300689547421745360000008651144956583061394_" class="st1">
		</g>
		<g class="st1">
			<path class="st2" d="M67.8,1.9l2.9,0.4c1.4,0.2,2.3,0.5,2.9,1c0.5,0.5,0.8,1.2,0.6,2c-0.1,0.6-0.3,1-0.7,1.4
				c-0.4,0.3-0.8,0.5-1.4,0.5v0.1c0.7,0.2,1.1,0.6,1.4,1c0.3,0.4,0.4,1,0.3,1.6c-0.1,0.9-0.5,1.5-1.2,2c-0.7,0.4-1.6,0.5-2.7,0.4
				l-3.6-0.5L67.8,1.9z M68.7,7.5l-0.5,3.1l1.7,0.2c0.7,0.1,1.2,0,1.6-0.2s0.6-0.6,0.7-1.2c0.1-0.5,0-0.9-0.4-1.2
				c-0.3-0.3-0.8-0.5-1.5-0.6L68.7,7.5z M68.9,6.2l1.6,0.2c0.7,0.1,1.2,0.1,1.5-0.1s0.6-0.5,0.6-1c0.1-0.5-0.1-0.8-0.4-1.1
				s-0.8-0.4-1.6-0.5l-1.4-0.2L68.9,6.2z"/>
			<path class="st2" d="M80.9,15.2l0.1-1h-0.1c-0.3,0.3-0.7,0.4-1.2,0.5s-0.9,0-1.4-0.2c-0.9-0.3-1.4-0.7-1.7-1.3s-0.3-1.3,0-2.2
				l1.6-4.7l1.5,0.5l-1.5,4.4c-0.2,0.5-0.2,1-0.1,1.3c0.1,0.4,0.4,0.6,0.9,0.8c0.6,0.2,1.2,0.2,1.6-0.1s0.8-0.9,1.1-1.8L83,7.9
				l1.5,0.5L82,15.5L80.9,15.2z"/>
			<path class="st2" d="M87.2,18.5c-1-0.6-1.6-1.3-1.8-2.1c-0.2-0.9,0-1.9,0.6-2.9c0.6-1.1,1.4-1.8,2.2-2.1c0.9-0.3,1.8-0.2,2.9,0.4
				c0.7,0.4,1.3,0.9,1.7,1.4l-1,0.8c-0.5-0.6-0.9-0.9-1.3-1.2c-1.1-0.6-2.1-0.2-3,1.3c-0.4,0.7-0.6,1.4-0.5,1.9
				c0.1,0.5,0.4,0.9,0.9,1.3c0.6,0.3,1.3,0.5,2,0.5L89.2,19c-0.3,0-0.7,0-1-0.1S87.7,18.7,87.2,18.5z"/>
			<path class="st2" d="M96.3,24.8l-1.3-1l2.9-3.6c0.4-0.5,0.5-0.9,0.5-1.2c0-0.4-0.2-0.7-0.6-1c-0.5-0.4-1-0.6-1.5-0.5
				s-1,0.5-1.6,1.3l-2.3,2.9l-1.3-1l6.7-8.3l1.3,1l-1.7,2.1c-0.3,0.3-0.6,0.7-0.9,1l0.1,0.1c0.4-0.1,0.8-0.2,1.2-0.1
				c0.4,0.1,0.8,0.3,1.3,0.6c1.4,1.1,1.6,2.4,0.4,3.9L96.3,24.8z"/>
			<path class="st2" d="M100.3,29.3c-0.8-0.9-1.1-1.8-1-2.8s0.6-1.8,1.5-2.6c0.9-0.8,1.9-1.2,2.8-1.2s1.8,0.4,2.5,1.2
				c0.7,0.8,0.9,1.5,0.9,2.4c-0.1,0.8-0.5,1.6-1.3,2.3l-0.7,0.6l-3.3-3.8c-0.5,0.5-0.8,1-0.9,1.6c-0.1,0.5,0.1,1.1,0.6,1.6
				c0.3,0.3,0.6,0.6,0.9,0.9c0.3,0.2,0.7,0.5,1.1,0.7l-1,0.9c-0.4-0.2-0.8-0.4-1.1-0.6S100.7,29.7,100.3,29.3z M105.1,24.8
				c-0.3-0.4-0.7-0.6-1.2-0.6c-0.4,0-0.9,0.2-1.4,0.5l2.2,2.6c0.5-0.4,0.7-0.8,0.8-1.3S105.5,25.2,105.1,24.8z"/>
			<path class="st2" d="M105.2,36.1c-0.6-1-0.8-1.9-0.5-2.7c0.3-0.9,0.9-1.6,2-2.3c1.1-0.7,2.1-0.9,3-0.7s1.7,0.8,2.3,1.8
				c0.4,0.7,0.7,1.4,0.8,2.1l-1.4,0.3c-0.1-0.7-0.3-1.3-0.5-1.6c-0.7-1.1-1.8-1.2-3.2-0.3c-0.7,0.4-1.2,0.9-1.4,1.4
				c-0.2,0.5-0.1,1,0.2,1.6c0.4,0.6,0.9,1.1,1.5,1.4l-1.2,0.7c-0.3-0.2-0.6-0.4-0.8-0.6C105.7,36.9,105.5,36.5,105.2,36.1z"/>
			<path class="st2" d="M110,46.1l-0.6-1.5l4.3-1.7c0.5-0.2,0.9-0.5,1.1-0.8s0.2-0.7,0-1.2c-0.3-0.6-0.6-1-1.1-1.2
				c-0.5-0.1-1.2,0-2.1,0.3l-3.5,1.4l-0.6-1.5l9.9-4l0.6,1.5l-2.5,1c-0.4,0.2-0.8,0.3-1.3,0.4v0.1c0.4,0.1,0.8,0.2,1.1,0.5
				c0.3,0.3,0.6,0.7,0.8,1.2c0.7,1.7,0.2,2.9-1.5,3.6L110,46.1z"/>
			<path class="st2" d="M111.7,53.4l1-0.5v-0.1c-0.5-0.3-0.9-0.6-1.1-0.9c-0.2-0.3-0.4-0.8-0.5-1.3c-0.1-0.7-0.1-1.3,0.2-1.8
				c0.3-0.5,0.8-0.8,1.5-1c0.8-0.2,1.4,0,1.9,0.5s0.9,1.3,1.2,2.5l0.3,1.3l0.4-0.1c0.5-0.1,0.8-0.3,1-0.5c0.2-0.3,0.2-0.6,0.1-1.1
				c-0.1-0.4-0.2-0.7-0.4-1.1c-0.2-0.3-0.4-0.6-0.6-0.9l1-0.7c0.3,0.4,0.5,0.8,0.7,1.2c0.2,0.5,0.4,0.9,0.4,1.3
				c0.2,0.9,0.1,1.7-0.2,2.3s-0.9,0.9-1.8,1.1l-5,1L111.7,53.4z M112.3,50.8c0.1,0.6,0.4,1,0.8,1.3s0.9,0.4,1.4,0.2l0.6-0.1
				l-0.2-0.9c-0.2-0.7-0.4-1.2-0.7-1.5c-0.3-0.3-0.7-0.4-1.1-0.3c-0.3,0.1-0.6,0.2-0.7,0.5C112.3,50.1,112.2,50.5,112.3,50.8z"/>
			<path class="st2" d="M115.4,61.2h1.4l-0.1,3.5h-1.4L115.4,61.2z"/>
			<path class="st2" d="M121.1,74l-0.8,2.9c-0.4,1.3-0.8,2.2-1.4,2.7s-1.2,0.6-2.1,0.4c-0.6-0.2-1-0.4-1.3-0.8s-0.4-0.9-0.4-1.4H115
				c-0.3,0.6-0.7,1.1-1.2,1.3c-0.5,0.2-1,0.2-1.7,0.1c-0.9-0.2-1.5-0.7-1.8-1.5c-0.3-0.7-0.3-1.6-0.1-2.7l0.9-3.5L121.1,74z
				 M115.4,74.2l-3.1-0.8l-0.5,1.7c-0.2,0.7-0.2,1.2,0,1.6s0.5,0.7,1.1,0.8c0.5,0.1,0.9,0.1,1.3-0.2c0.3-0.3,0.6-0.8,0.8-1.5
				L115.4,74.2z M116.7,74.5l-0.4,1.5c-0.2,0.7-0.2,1.2-0.1,1.5s0.4,0.6,0.9,0.7s0.8,0,1.1-0.2s0.5-0.8,0.7-1.5l0.4-1.4L116.7,74.5z
				"/>
			<path class="st2" d="M106.5,78.6c0.2-0.4,0.4-0.7,0.6-1l1.3,0.5c-0.2,0.3-0.4,0.6-0.5,0.9c-0.4,0.8,0,1.5,1,1.9l8.9,3.9l-0.7,1.5
				l-8.8-3.9c-0.9-0.4-1.6-0.9-1.9-1.6S106.1,79.4,106.5,78.6z"/>
			<path class="st2" d="M104.6,82.8c0.2-0.4,0.5-0.7,0.7-0.9l1.2,0.7c-0.3,0.3-0.5,0.6-0.6,0.8c-0.4,0.8-0.2,1.4,0.8,2l8.5,4.7
				l-0.8,1.4l-8.4-4.7c-0.9-0.5-1.5-1.1-1.7-1.8S104.1,83.6,104.6,82.8z"/>
			<path class="st2" d="M101.9,92.2l1-1.3l6.9,5.2l1.8-2.3l1.1,0.8l-4.5,6l-1.1-0.8l1.8-2.3L101.9,92.2z"/>
			<path class="st2" d="M96.5,103.3c-0.8-0.9-1.3-1.8-1.3-2.8s0.4-1.8,1.2-2.6c0.5-0.5,1.1-0.8,1.7-0.9s1.2-0.1,1.9,0.2
				c0.6,0.2,1.2,0.6,1.7,1.2c0.8,0.9,1.3,1.8,1.3,2.7s-0.4,1.8-1.2,2.6c-0.8,0.7-1.7,1.1-2.6,1C98.2,104.6,97.3,104.1,96.5,103.3z
				 M100.5,99.5c-1.2-1.3-2.3-1.5-3.2-0.6c-0.9,0.9-0.8,1.9,0.4,3.2c1.2,1.3,2.2,1.5,3.2,0.6c0.5-0.5,0.7-1,0.6-1.5
				S101.1,100.1,100.5,99.5z"/>
			<path class="st2" d="M92.8,106.1l-0.1,1.4l-0.6,3.3l-1.6,1l0.8-4.4l-5.1-1.9l1.6-1l3.8,1.5l0.4-1l-1.4-2.2l1.3-0.9l5.8,8.9
				l-1.3,0.9l-2.8-4.4L92.8,106.1L92.8,106.1z"/>
			<path class="st2" d="M81.6,107.5c1.1-0.5,2.1-0.5,2.9-0.1c0.9,0.4,1.6,1.1,2,2.2c0.5,1.1,0.6,2.1,0.3,3c-0.3,0.9-0.9,1.5-1.9,2
				c-0.9,0.4-1.8,0.4-2.5,0.1c-0.8-0.3-1.4-1-1.8-2l-0.3-0.8l4.6-2c-0.3-0.7-0.7-1.1-1.2-1.3c-0.5-0.2-1.1-0.2-1.7,0.1
				c-0.4,0.2-0.8,0.4-1.1,0.6c-0.3,0.2-0.6,0.5-1,0.9l-0.5-1.2c0.3-0.3,0.6-0.6,0.9-0.8C80.7,108,81.1,107.7,81.6,107.5z
				 M84.4,113.5c0.5-0.2,0.8-0.5,0.9-0.9c0.2-0.4,0.1-0.9,0-1.5l-3.2,1.3c0.3,0.6,0.6,0.9,1,1.1S83.9,113.7,84.4,113.5z"/>
			<path class="st2" d="M70.2,111l1.6-0.4l1,4.5c0.1,0.6,0.3,1,0.6,1.2c0.3,0.2,0.7,0.3,1.2,0.2c0.7-0.1,1.1-0.5,1.3-0.9
				c0.2-0.5,0.2-1.2,0-2.1l-0.8-3.7l1.6-0.4l1.7,7.4l-1.2,0.3l-0.4-0.9h-0.1c-0.1,0.4-0.4,0.7-0.8,1s-0.8,0.5-1.3,0.6
				c-1.8,0.4-2.9-0.3-3.3-2.1L70.2,111z"/>
			<path class="st2" d="M63.5,114.6v1.4l-3.5-0.1v-1.4L63.5,114.6z"/>
			<path class="st2" d="M50.8,120.4l-2.9-0.7c-1.3-0.3-2.2-0.8-2.7-1.3s-0.6-1.2-0.4-2.1c0.1-0.6,0.4-1,0.8-1.3s0.9-0.4,1.4-0.4
				v-0.1c-0.6-0.3-1.1-0.7-1.3-1.1c-0.2-0.5-0.3-1-0.1-1.7c0.2-0.9,0.7-1.5,1.4-1.8s1.6-0.4,2.7-0.1l3.5,0.9L50.8,120.4z M50.2,116
				l-1.5-0.4c-0.7-0.2-1.2-0.2-1.5-0.1c-0.4,0.1-0.6,0.4-0.7,1c-0.1,0.5,0,0.8,0.2,1.1c0.3,0.3,0.8,0.5,1.5,0.7l1.4,0.4L50.2,116z
				 M50.6,114.7l0.8-3.1l-1.7-0.4c-0.7-0.2-1.2-0.2-1.6,0c-0.4,0.2-0.7,0.5-0.8,1.1c-0.1,0.5-0.1,0.9,0.2,1.3s0.8,0.6,1.5,0.8
				L50.6,114.7z"/>
			<path class="st2" d="M39.2,105.8l-0.2,1h0.1c0.4-0.2,0.8-0.3,1.2-0.3c0.5,0,0.9,0.1,1.4,0.3c0.8,0.4,1.3,0.9,1.6,1.5
				c0.2,0.6,0.1,1.3-0.3,2.2l-2.1,4.5l-1.5-0.7l2-4.2c0.2-0.5,0.3-1,0.2-1.3s-0.4-0.7-0.8-0.9c-0.6-0.3-1.1-0.3-1.6-0.1
				c-0.5,0.2-0.9,0.8-1.3,1.6l-1.6,3.4l-1.5-0.7l3.2-6.8L39.2,105.8z"/>
			<path class="st2" d="M33.3,101.9c0.9,0.7,1.5,1.4,1.6,2.3s-0.2,1.8-0.9,2.9c-0.7,1-1.5,1.7-2.5,1.9c-0.9,0.2-1.8,0-2.8-0.7
				c-0.7-0.5-1.2-1-1.5-1.6l1.1-0.8c0.4,0.6,0.8,1,1.1,1.3c1.1,0.8,2.1,0.4,3.1-1c0.5-0.7,0.7-1.3,0.7-1.8s-0.3-1-0.8-1.3
				c-0.6-0.4-1.2-0.7-2-0.7l0.8-1.1c0.3,0,0.7,0.1,1,0.2C32.5,101.4,32.9,101.6,33.3,101.9z"/>
			<path class="st2" d="M24.9,94.6l1.1,1.1L22.8,99c-0.4,0.4-0.6,0.8-0.7,1.2s0.1,0.7,0.5,1.1c0.5,0.5,1,0.7,1.5,0.6
				s1.1-0.4,1.8-1.1l2.6-2.7l1.1,1.1l-7.5,7.5l-1.1-1.1l1.9-1.9c0.3-0.3,0.7-0.6,1-0.9l-0.1-0.1c-0.4,0.1-0.8,0.1-1.2,0
				c-0.4-0.1-0.8-0.4-1.2-0.7c-1.3-1.3-1.3-2.6,0-3.9L24.9,94.6z"/>
			<path class="st2" d="M21.5,89.8c0.7,0.9,0.9,1.8,0.7,2.7c-0.2,0.9-0.8,1.7-1.8,2.4c-1,0.7-2,1.1-2.9,0.9
				c-0.9-0.1-1.7-0.6-2.4-1.6c-0.5-0.6-0.8-1.3-0.9-2l1.3-0.4c0.2,0.7,0.4,1.2,0.7,1.6c0.8,1.1,1.8,1.1,3.3,0.1
				c0.7-0.5,1.1-1,1.3-1.5c0.2-0.5,0.1-1-0.3-1.5c-0.4-0.6-1-1-1.6-1.3l1.1-0.8c0.3,0.1,0.6,0.3,0.8,0.5
				C21,89.2,21.3,89.5,21.5,89.8z"/>
			<path class="st2" d="M16.1,80.2l0.7,1.5l-4.2,2c-0.5,0.3-0.9,0.5-1,0.9c-0.2,0.3-0.1,0.7,0.1,1.2c0.3,0.6,0.7,1,1.2,1.1
				s1.2,0,2-0.5l3.4-1.6l0.7,1.4l-9.6,4.6l-0.7-1.4l2.4-1.2c0.4-0.2,0.8-0.4,1.3-0.5v-0.1c-0.4,0-0.8-0.2-1.2-0.5s-0.6-0.6-0.9-1.1
				c-0.8-1.7-0.4-2.9,1.3-3.7L16.1,80.2z"/>
			<path class="st2" d="M13.9,73L13,73.6v0.1c0.5,0.2,0.9,0.5,1.2,0.8s0.5,0.7,0.6,1.3c0.2,0.7,0.2,1.3-0.1,1.8s-0.8,0.9-1.5,1.1
				c-0.8,0.2-1.4,0.1-1.9-0.4s-1-1.2-1.3-2.4l-0.4-1.2l-0.4,0.1c-0.5,0.1-0.8,0.3-1,0.6C8,75.7,8,76.1,8.1,76.5s0.3,0.7,0.5,1
				s0.4,0.6,0.7,0.9l-1,0.8C8,78.9,7.7,78.5,7.5,78c-0.2-0.4-0.4-0.9-0.5-1.3c-0.3-0.9-0.2-1.7,0-2.3c0.3-0.6,0.8-1,1.7-1.2l4.9-1.3
				L13.9,73z M13.5,75.6c-0.2-0.6-0.4-1-0.8-1.2c-0.4-0.3-0.9-0.3-1.5-0.1l-0.6,0.2l0.3,0.9c0.2,0.7,0.5,1.2,0.8,1.5
				s0.7,0.3,1.1,0.2c0.3-0.1,0.6-0.3,0.7-0.5S13.6,76,13.5,75.6z"/>
			<path class="st2" d="M9.6,65.5l-1.4,0.1L8.1,62h1.4L9.6,65.5z"/>
			<path class="st2" d="M3.1,53.1l0.6-2.9c0.3-1.3,0.7-2.3,1.2-2.8s1.2-0.7,2-0.5c0.6,0.1,1,0.4,1.3,0.7C8.5,48,8.7,48.4,8.7,49h0.1
				c0.3-0.7,0.6-1.1,1.1-1.4s1-0.3,1.6-0.2c0.9,0.2,1.5,0.6,1.9,1.3s0.5,1.6,0.2,2.7L12.9,55L3.1,53.1z M7.5,52.3l0.3-1.5
				c0.1-0.7,0.1-1.2,0-1.5s-0.5-0.6-1-0.7c-0.5-0.1-0.8,0-1.1,0.3c-0.3,0.3-0.5,0.8-0.6,1.5l-0.3,1.4L7.5,52.3z M8.8,52.5l3.1,0.6
				l0.3-1.7c0.1-0.7,0.1-1.2-0.1-1.6c-0.2-0.4-0.6-0.6-1.1-0.8c-0.5-0.1-0.9,0-1.2,0.3s-0.5,0.8-0.7,1.5L8.8,52.5z"/>
			<path class="st2" d="M17.5,47.6c-0.2,0.4-0.3,0.8-0.5,1l-1.3-0.5c0.2-0.3,0.4-0.6,0.5-0.9c0.3-0.8-0.1-1.5-1.1-1.8L6,42.1
				l0.6-1.5l9.1,3.3c1,0.3,1.6,0.8,2,1.5S17.8,46.7,17.5,47.6z"/>
			<path class="st2" d="M19,43.3c-0.2,0.4-0.4,0.7-0.6,0.9l-1.2-0.6c0.3-0.3,0.4-0.6,0.6-0.8c0.4-0.8,0.1-1.5-1-1.9L8,36.7l0.7-1.5
				l8.7,4.1c0.9,0.4,1.5,1,1.8,1.7C19.5,41.7,19.4,42.4,19,43.3z"/>
			<path class="st2" d="M19.7,33.7c0.2-0.3,0.4-0.7,0.5-1.1l1,0.6c0,0.2-0.1,0.4-0.2,0.7s-0.2,0.5-0.4,0.8c-0.8,1.3-1.9,1.5-3.2,0.7
				l-3.5-2.1l-0.5,0.9l-0.6-0.4l0.1-1.3l-1.1-1.3l0.5-0.8l1.4,0.9l1.1-1.8l1,0.6l-1.1,1.8l3.4,2.1c0.3,0.2,0.6,0.3,0.9,0.2
				S19.5,34,19.7,33.7z"/>
			<path class="st2" d="M24,24c0.9,0.8,1.5,1.7,1.6,2.6s-0.2,1.8-0.9,2.7c-0.5,0.5-1,0.9-1.6,1.1s-1.2,0.2-1.9,0.1
				c-0.6-0.2-1.3-0.5-1.9-1c-0.9-0.8-1.5-1.7-1.6-2.6s0.2-1.8,0.9-2.7c0.7-0.8,1.5-1.3,2.5-1.3S23.1,23.2,24,24z M20.4,28.2
				c1.3,1.1,2.4,1.2,3.2,0.2c0.8-1,0.6-2-0.7-3.2c-1.3-1.1-2.4-1.2-3.2-0.2c-0.4,0.5-0.6,1-0.4,1.5S19.8,27.7,20.4,28.2z"/>
			<path class="st2" d="M27.3,20.8v-1.5l0.2-3.3l1.4-1.2l-0.3,4.4l5.2,1.3l-1.5,1.2l-4-1l-0.2,1.1l1.6,2l-1.2,1l-6.8-8.2l1.2-1
				l3.3,4L27.3,20.8L27.3,20.8z"/>
			<path class="st2" d="M38.3,18.1c-1,0.6-2,0.7-2.9,0.5s-1.7-0.9-2.3-2s-0.8-2.1-0.6-3s0.7-1.6,1.7-2.2c0.9-0.5,1.7-0.6,2.5-0.4
				c0.8,0.2,1.5,0.8,2,1.7l0.4,0.8L34.8,16c0.4,0.6,0.8,1,1.4,1.2c0.5,0.2,1.1,0.1,1.7-0.3c0.4-0.2,0.7-0.5,1-0.7
				c0.3-0.3,0.6-0.6,0.9-1l0.6,1.1c-0.2,0.4-0.5,0.7-0.8,0.9C39.2,17.6,38.8,17.8,38.3,18.1z M34.8,12.5c-0.4,0.3-0.7,0.6-0.8,1
				s0,0.9,0.2,1.5l3-1.7c-0.3-0.5-0.7-0.9-1.1-1C35.7,12.2,35.3,12.2,34.8,12.5z"/>
			<path class="st2" d="M49.3,13.4l-1.5,0.5l-1.5-4.4C46,9,45.8,8.6,45.5,8.4s-0.7-0.2-1.2,0c-0.6,0.2-1,0.6-1.2,1.1
				s-0.1,1.2,0.2,2.1l1.2,3.6L43,15.6l-2.5-7.1L41.7,8l0.5,0.9h0.1c0.1-0.4,0.3-0.8,0.6-1.1s0.7-0.6,1.2-0.7c1.7-0.6,2.9,0,3.5,1.7
				L49.3,13.4z"/>
			<path class="st2" d="M55.5,9.1l-0.1-1.4l3.5-0.3L59,8.7L55.5,9.1z"/>
		</g>
		<g id="Icon_21" class="st1">
			<line class="st3" x1="-82.5" y1="27.3" x2="-60.2" y2="49.6"/>
			<line class="st3" x1="-44.4" y1="65.4" x2="-22.1" y2="87.7"/>
			<line class="st3" x1="-22.1" y1="27.3" x2="-44.4" y2="49.6"/>
			<line class="st3" x1="-60.2" y1="65.4" x2="-82.5" y2="87.7"/>
			<circle class="st4" cx="61.8" cy="61.7" r="4.2"/>
		</g>
		<g id="Icon_147" class="st1">
			<g>
				<path class="st5" d="M29.5,80.5c-2.6-0.7-5.1-1.7-7.6-3c-3.4-8.3-4.2-17.6-2.2-26.3l5.4,1.2C22.8,61.9,24.4,72.2,29.5,80.5z
					 M61.5,22.9c-4.9,0.1-9.7,1.1-14.2,3s-8.6,4.6-12,8L31.5,30c6.3-6.3,14.7-10.6,23.5-12C57.4,19.5,59.6,21.1,61.5,22.9z
					 M26.2,48.5c-0.2,0.7-0.4,1.3-0.6,2L20.3,49c0.2-0.8,0.5-1.5,0.7-2.3L26.2,48.5z M27.6,45c-0.3,0.6-0.6,1.3-0.8,1.9l-5.1-2
					c0.3-0.7,0.6-1.5,0.9-2.2L27.6,45z M29.3,41.6c-0.3,0.6-0.7,1.2-1,1.8l-4.9-2.5c0.4-0.7,0.8-1.4,1.2-2.1L29.3,41.6z M31.4,38.5
					c-0.4,0.6-0.8,1.1-1.2,1.7l-4.6-3c0.5-0.7,0.9-1.3,1.4-2L31.4,38.5z M33.8,35.5c-0.5,0.5-0.9,1.1-1.4,1.6l-4.3-3.4
					c0.5-0.6,1-1.2,1.5-1.8L33.8,35.5z"/>
			</g>
			<g>
				<path class="st5" d="M95.4,79.5c0.7,2.5,1.1,5.3,1.2,8.1c-2.7,3.5-6,6.6-9.7,9.2c-3.7,2.5-7.7,4.5-12,5.8l-1.6-5.2
					c4.6-1.4,9-3.7,12.8-6.8C89.8,87.5,93,83.7,95.4,79.5z M29.5,80.5c2.5,4.2,5.8,7.8,9.6,10.8c3.9,2.9,8.3,5.1,13,6.4l-1.4,5.3
					c-4.3-1.2-8.4-3-12.2-5.5c-3.7-2.4-7.1-5.4-9.9-8.9C28.5,85.8,28.9,83.1,29.5,80.5z M69.3,98.3l1-0.2l1-0.2l1.3,5.3l-1.2,0.3
					l-1.2,0.2L69.3,98.3z M65.5,98.9l1-0.1l1-0.1l0.8,5.4l-1.2,0.2l-1.2,0.1L65.5,98.9z M61.8,99c0.3,0,0.7,0,1,0h1l0.2,5.5h-1.2
					c-0.4,0-0.8,0-1.2,0L61.8,99z M58,98.8c0.7,0.1,1.4,0.1,2.1,0.2l-0.3,5.5c-0.8,0-1.6-0.1-2.4-0.2L58,98.8z M54.3,98.2
					c0.7,0.2,1.4,0.3,2,0.4l-0.8,5.4c-0.8-0.1-1.6-0.2-2.3-0.4L54.3,98.2z"/>
			</g>
			<g>
				<path class="st5" d="M61.5,22.9c1.9-1.8,4-3.6,6.4-5.1c8.9,1.1,17.3,5.2,23.9,11.3l-3.7,4c-3.6-3.3-7.7-5.9-12.3-7.7
					C70.9,23.3,65.9,22.3,61.5,22.9z M95.4,79.5c4.8-8.5,6.1-18.8,3.6-28.2l5.3-1.4c2.3,8.6,1.8,18-1.4,26.3
					C100.4,77.7,97.9,78.7,95.4,79.5z M90.9,36.1c-0.5-0.5-0.9-1.1-1.4-1.5l3.9-3.8c0.6,0.6,1.1,1.2,1.6,1.8L90.9,36.1z M93.3,39.1
					c-0.4-0.6-0.8-1.1-1.2-1.7l4.3-3.4c0.5,0.6,0.9,1.3,1.4,1.9L93.3,39.1z M95.3,42.2c-0.4-0.6-0.7-1.2-1.1-1.8l4.6-3
					c0.4,0.7,0.8,1.4,1.2,2L95.3,42.2z M97,45.6c-0.3-0.6-0.6-1.3-0.9-1.9l4.9-2.5c0.4,0.7,0.7,1.4,1,2.1L97,45.6z M98.3,49.1
					c-0.2-0.7-0.5-1.3-0.7-2l5.1-2c0.3,0.7,0.5,1.5,0.8,2.2L98.3,49.1z"/>
			</g>
		</g>
	</g>
	<g id="LEO">
		<g>
			<path class="st2" d="M63.1,13l0.8-10.7l1.7,0.1l-0.7,9.2l4.5,0.4l-0.1,1.5L63.1,13z"/>
			<path class="st2" d="M74,14.7c-1.2-0.3-2.1-0.9-2.6-1.8c-0.5-0.9-0.6-2-0.3-3.2c0.3-1.3,0.9-2.2,1.7-2.8s1.8-0.7,2.9-0.5
				c1,0.3,1.8,0.8,2.2,1.6c0.4,0.8,0.5,1.7,0.3,2.8L78,11.7l-5.2-1.3c-0.2,0.8-0.1,1.4,0.2,1.9c0.3,0.5,0.8,0.8,1.5,1
				c0.5,0.1,0.9,0.2,1.3,0.2s0.9,0,1.4-0.1l-0.3,1.4c-0.5,0.1-0.9,0.1-1.3,0.1C75,14.9,74.5,14.8,74,14.7z M75.4,7.8
				c-0.5-0.1-1-0.1-1.4,0.2c-0.4,0.3-0.7,0.7-0.9,1.3l3.6,0.9c0.2-0.7,0.1-1.2-0.1-1.6C76.3,8.2,75.9,7.9,75.4,7.8z"/>
			<path class="st2" d="M86.7,15c-0.5,1.2-1.3,2-2.2,2.4c-0.9,0.4-1.9,0.4-3-0.1c-0.7-0.3-1.2-0.7-1.6-1.3c-0.4-0.5-0.6-1.2-0.6-1.9
				s0.1-1.5,0.5-2.2c0.5-1.2,1.3-2,2.2-2.4c0.9-0.4,1.9-0.4,3.1,0.1c1.1,0.5,1.8,1.2,2.1,2.2C87.3,12.8,87.2,13.9,86.7,15z
				 M81.3,12.6c-0.8,1.7-0.5,2.8,0.8,3.4c1.2,0.6,2.3,0,3-1.7s0.5-2.8-0.8-3.4c-0.7-0.3-1.2-0.3-1.7,0
				C82.1,11.3,81.7,11.8,81.3,12.6z"/>
			<path class="st2" d="M101.1,17l1.4,1.1l-9.6,6L91.5,23l3.7-10.7l1.4,1.1L94.2,20c-0.1,0.3-0.3,0.7-0.5,1.2s-0.4,0.8-0.5,1
				c0.3-0.3,0.6-0.5,1-0.8s0.7-0.5,0.9-0.6L101.1,17z"/>
			<path class="st2" d="M97.5,28.6l-1.2-1.2l5.8-5.6l1.2,1.2L97.5,28.6z M103.6,20.1c0.2-0.2,0.5-0.3,0.7-0.3s0.5,0.1,0.7,0.3
				c0.2,0.2,0.3,0.4,0.3,0.7c0,0.2-0.1,0.5-0.3,0.7c-0.2,0.2-0.4,0.3-0.7,0.3c-0.2,0-0.5-0.1-0.7-0.3c-0.2-0.2-0.3-0.5-0.3-0.7
				S103.4,20.3,103.6,20.1z"/>
			<path class="st2" d="M101.1,33c-0.8-1-1.1-2-0.9-3s0.8-1.9,1.8-2.7c1.1-0.8,2.1-1.2,3.1-1.1s1.8,0.6,2.5,1.5
				c0.6,0.9,0.9,1.7,0.7,2.6s-0.7,1.7-1.6,2.4l-0.7,0.6l-3.2-4.3c-0.6,0.5-1,1-1.1,1.6s0.1,1.2,0.5,1.7c0.3,0.4,0.6,0.7,0.9,1
				s0.7,0.5,1.2,0.8l-1.1,0.8c-0.4-0.2-0.8-0.5-1.1-0.8S101.4,33.5,101.1,33z M106.5,28.5c-0.3-0.4-0.7-0.7-1.2-0.7
				c-0.5-0.1-1,0.1-1.6,0.4l2.2,2.9c0.5-0.4,0.8-0.8,0.9-1.3S106.9,29,106.5,28.5z"/>
			<path class="st2" d="M113,36.5c0.2,0.3,0.3,0.6,0.3,0.8l-1.5,0.6c-0.1-0.2-0.2-0.5-0.3-0.7c-0.3-0.6-0.8-1-1.4-1.1
				s-1.2-0.1-1.8,0.3l-3.7,2l-0.8-1.5l7.1-3.9l0.6,1.2l-1.1,0.9v0.1c0.6,0,1.1,0.1,1.5,0.4C112.4,35.8,112.8,36.1,113,36.5z"/>
			<path class="st2" d="M108.4,47l0.9-0.7v-0.1c-0.6-0.2-1-0.5-1.3-0.8s-0.6-0.8-0.8-1.3c-0.3-0.7-0.3-1.4,0-2s0.7-1,1.5-1.3
				s1.5-0.2,2.1,0.2s1.2,1.2,1.6,2.4l0.5,1.3l0.4-0.1c0.5-0.2,0.8-0.4,1-0.7s0.2-0.7,0-1.2c-0.1-0.4-0.3-0.7-0.6-1.1
				s-0.5-0.6-0.8-0.9l1-0.9c0.4,0.3,0.7,0.7,1,1.2s0.5,0.9,0.7,1.3c0.4,1,0.4,1.8,0.2,2.4c-0.2,0.6-0.8,1.1-1.7,1.5l-5.1,1.9
				L108.4,47z M108.6,44.2c0.2,0.6,0.5,1,1,1.2s1,0.2,1.6,0l0.7-0.2l-0.4-1c-0.3-0.8-0.6-1.3-1-1.5c-0.4-0.3-0.8-0.3-1.2-0.1
				c-0.3,0.1-0.6,0.3-0.7,0.6S108.5,43.8,108.6,44.2z"/>
			<path class="st2" d="M113.3,52.7l1.4-0.2l0.7,6.3L114,59L113.3,52.7z"/>
			<path class="st2" d="M121.3,66l-0.4,3.2c-0.2,1.5-0.5,2.5-1,3.1s-1.2,0.8-2.1,0.7c-0.6-0.1-1.1-0.3-1.5-0.7s-0.6-0.9-0.6-1.5
				h-0.1c-0.2,0.7-0.6,1.2-1,1.5c-0.5,0.3-1,0.4-1.8,0.3c-1-0.1-1.7-0.6-2.1-1.3c-0.5-0.7-0.6-1.7-0.5-2.9l0.5-3.8L121.3,66z
				 M115.3,67l-3.4-0.4l-0.2,1.8c-0.1,0.7,0,1.3,0.2,1.7s0.6,0.6,1.2,0.7s1-0.1,1.3-0.4s0.5-0.9,0.6-1.7L115.3,67z M116.7,67.2
				l-0.2,1.7c-0.1,0.7,0,1.3,0.1,1.6s0.6,0.6,1.1,0.7s0.9-0.1,1.2-0.4s0.5-0.9,0.6-1.7l0.2-1.5L116.7,67.2z"/>
			<path class="st2" d="M106.6,71.9c0.1-0.5,0.3-0.8,0.5-1.1l1.4,0.4c-0.2,0.4-0.4,0.7-0.4,1c-0.3,0.9,0.2,1.5,1.4,1.9l10,2.8
				l-0.5,1.7l-9.9-2.7c-1.1-0.3-1.8-0.8-2.2-1.4S106.3,72.9,106.6,71.9z"/>
			<path class="st2" d="M105.5,75.8c0.2-0.4,0.4-0.8,0.6-1.1l1.4,0.5c-0.2,0.3-0.4,0.7-0.5,0.9c-0.3,0.9,0.1,1.6,1.2,2l9.7,3.6
				l-0.6,1.6l-9.7-3.6c-1-0.4-1.7-0.9-2.1-1.6S105.2,76.8,105.5,75.8z"/>
			<path class="st2" d="M106.2,85.1c-0.2,0.4-0.3,0.8-0.4,1.2l-1.2-0.6c0-0.2,0.1-0.5,0.1-0.8c0.1-0.3,0.2-0.6,0.3-0.9
				c0.7-1.5,1.9-1.8,3.4-1.1l3.9,1.9l0.5-1l0.7,0.3v1.3l1.3,1.3l-0.5,1l-1.6-0.8l-1,2.1l-1.2-0.6l1-2.1l-3.9-1.9
				c-0.4-0.2-0.7-0.2-1-0.1C106.5,84.6,106.3,84.8,106.2,85.1z"/>
			<path class="st2" d="M103.2,95c-1.1-0.8-1.7-1.6-2-2.6c-0.2-1,0-2,0.7-3c0.4-0.6,1-1.1,1.6-1.4s1.3-0.4,2-0.3s1.4,0.4,2.1,0.9
				c1.1,0.7,1.7,1.6,2,2.6c0.2,1,0,2-0.7,3s-1.5,1.5-2.5,1.6C105.3,96.1,104.2,95.8,103.2,95z M106.5,90.2c-1.5-1.1-2.7-1-3.5,0.1
				s-0.4,2.2,1.1,3.3c1.5,1.1,2.7,1,3.5-0.1c0.4-0.6,0.5-1.2,0.3-1.7C107.7,91.2,107.3,90.7,106.5,90.2z"/>
			<path class="st2" d="M100.7,98.1l0.2,1.5l0.1,3.6l-1.4,1.4l-0.2-4.8L93.7,99l1.4-1.4l4.4,0.6l0.1-1.2l-2-1.9l1.2-1.2l8.1,8
				l-1.2,1.2l-4-3.9L100.7,98.1L100.7,98.1z"/>
			<path class="st2" d="M90,101.5c1-0.7,2-1,3-0.8s1.9,0.8,2.6,1.8c0.8,1.1,1.1,2.1,1,3.1s-0.6,1.8-1.5,2.5
				c-0.9,0.6-1.7,0.9-2.6,0.7c-0.9-0.2-1.7-0.7-2.3-1.6l-0.5-0.8l4.4-3.2c-0.5-0.6-1-1-1.6-1.1s-1.2,0.1-1.7,0.5
				c-0.4,0.3-0.7,0.6-1,0.9s-0.6,0.7-0.8,1.1l-0.8-1.1c0.2-0.4,0.5-0.8,0.8-1.1S89.6,101.9,90,101.5z M94.4,107.1
				c0.4-0.3,0.7-0.7,0.8-1.2c0.1-0.5-0.1-1-0.4-1.6l-3,2.2c0.4,0.5,0.8,0.9,1.3,0.9C93.5,107.5,94,107.4,94.4,107.1z"/>
			<path class="st2" d="M79.8,107.4l1.6-0.8l2.2,4.5c0.3,0.6,0.6,0.9,0.9,1.1c0.4,0.2,0.8,0.1,1.3-0.1c0.7-0.3,1-0.7,1.2-1.3
				c0.1-0.5,0-1.3-0.5-2.2l-1.8-3.6l1.5-0.7l3.5,7.3l-1.2,0.6l-0.7-0.9h-0.1c-0.1,0.5-0.2,0.9-0.5,1.3s-0.7,0.7-1.2,0.9
				c-1.7,0.8-3.1,0.4-3.9-1.4L79.8,107.4z"/>
			<path class="st2" d="M75.7,112.2l0.3,1.4l-6.2,1.3l-0.3-1.4L75.7,112.2z"/>
			<path class="st2" d="M63.6,110.7l-0.2,10.7h-1.7l0.2-9.2l-4.5-0.1v-1.5L63.6,110.7z"/>
			<path class="st2" d="M54.2,110.1l1.7,0.2l-1.6,11.3l-1.7-0.2L54.2,110.1z"/>
			<path class="st2" d="M48.7,108.7c1.2,0.3,2.1,0.9,2.6,1.8s0.6,2,0.2,3.2c-0.3,1.3-0.9,2.2-1.8,2.8c-0.8,0.6-1.8,0.7-2.9,0.4
				c-1-0.3-1.8-0.8-2.2-1.6c-0.4-0.8-0.5-1.7-0.2-2.8l0.2-0.9l5.2,1.4c0.2-0.8,0.1-1.4-0.1-1.9c-0.3-0.5-0.8-0.9-1.5-1.1
				c-0.5-0.1-0.9-0.2-1.3-0.2c-0.4,0-0.9,0-1.4,0.1l0.4-1.4c0.5-0.1,0.9-0.1,1.3-0.1C47.7,108.5,48.2,108.6,48.7,108.7z M47.2,115.6
				c0.5,0.1,1,0.1,1.4-0.2c0.4-0.2,0.7-0.7,1-1.3l-3.6-1c-0.2,0.6-0.1,1.2,0.1,1.6C46.3,115.2,46.7,115.5,47.2,115.6z"/>
			<path class="st2" d="M36,108.1c0.6-1.2,1.3-2,2.2-2.4s1.9-0.3,3,0.2c0.7,0.3,1.2,0.8,1.6,1.3c0.4,0.6,0.6,1.2,0.6,1.9
				c0,0.7-0.2,1.5-0.5,2.2c-0.6,1.2-1.3,2-2.2,2.4s-1.9,0.3-3-0.2s-1.7-1.2-2-2.2C35.3,110.4,35.5,109.3,36,108.1z M41.3,110.6
				c0.8-1.7,0.6-2.8-0.7-3.4c-1.2-0.6-2.3,0-3,1.7c-0.8,1.7-0.6,2.8,0.7,3.4c0.7,0.3,1.2,0.3,1.7,0C40.5,112,41,111.4,41.3,110.6z"
				/>
			<path class="st2" d="M25.1,108.7l-1.5-1.1l9.3-6.6l1.5,1.1L31.2,113l-1.5-1l2-6.7c0.1-0.3,0.2-0.7,0.4-1.2s0.3-0.8,0.4-1.1
				c-0.3,0.3-0.6,0.6-1,0.9s-0.7,0.6-0.9,0.7L25.1,108.7z"/>
			<path class="st2" d="M28,97l-3.6,7.9l-1.3-1.3l2.2-4.5c0.4-0.8,0.7-1.3,1-1.7l0,0c-0.3,0.2-0.9,0.5-1.7,1l-4.5,2.2l-1.3-1.3
				l7.9-3.5L28,97z"/>
			<path class="st2" d="M16,99.1c-0.2,0.2-0.5,0.3-0.7,0.2c-0.2,0-0.4-0.2-0.6-0.4c-0.2-0.2-0.3-0.5-0.2-0.7c0-0.2,0.2-0.4,0.4-0.6
				s0.5-0.3,0.7-0.2c0.2,0,0.4,0.2,0.6,0.4c0.2,0.2,0.3,0.5,0.2,0.7S16.3,98.9,16,99.1z M22.9,91.3l1.1,1.4l-6.4,5l-1.1-1.4
				L22.9,91.3z"/>
			<path class="st2" d="M19.9,86.5c0.6,1.1,0.8,2.1,0.6,3.1c-0.3,1-0.9,1.8-2.1,2.5c-1.1,0.7-2.2,0.9-3.2,0.8
				c-1-0.2-1.8-0.8-2.4-1.7c-0.6-0.9-0.7-1.8-0.5-2.7s0.8-1.6,1.8-2.2l0.8-0.5l2.8,4.6c0.7-0.4,1.1-0.9,1.2-1.5
				c0.2-0.6,0-1.2-0.3-1.8c-0.2-0.4-0.5-0.8-0.8-1.1c-0.3-0.3-0.6-0.6-1.1-0.9l1.2-0.7c0.4,0.3,0.7,0.5,1,0.9
				C19.3,85.7,19.6,86.1,19.9,86.5z M14,90.5c0.3,0.5,0.7,0.8,1.1,0.9c0.5,0.1,1,0,1.6-0.3L14.8,88c-0.6,0.4-0.9,0.8-1.1,1.2
				C13.6,89.5,13.7,90,14,90.5z"/>
			<path class="st2" d="M8.4,81.8c-0.1-0.3-0.2-0.6-0.3-0.8l1.5-0.5c0,0.2,0.1,0.5,0.2,0.7c0.3,0.6,0.7,1.1,1.3,1.3s1.2,0.2,1.9-0.1
				l3.9-1.6l0.7,1.6l-7.5,3.1l-0.5-1.2l1.2-0.8v-0.1c-0.5-0.1-1-0.2-1.5-0.5C8.9,82.7,8.6,82.3,8.4,81.8z"/>
			<path class="st2" d="M14,71.9l-1,0.6v0.1c0.6,0.3,1,0.6,1.3,0.9s0.5,0.8,0.6,1.4c0.2,0.8,0.1,1.4-0.2,2s-0.8,0.9-1.6,1.1
				s-1.5,0.1-2.1-0.4s-1-1.4-1.4-2.6l-0.4-1.3l-0.4,0.1c-0.5,0.1-0.8,0.3-1,0.6c-0.2,0.3-0.2,0.7-0.1,1.2C7.8,76,8,76.4,8.2,76.7
				c0.2,0.3,0.4,0.7,0.7,1l-1.1,0.8C7.6,78,7.3,77.6,7,77.1c-0.2-0.5-0.4-0.9-0.5-1.4c-0.3-1-0.2-1.8,0.1-2.4c0.3-0.6,0.9-1,1.9-1.3
				l5.3-1.3L14,71.9z M13.5,74.7c-0.2-0.6-0.4-1-0.9-1.3c-0.4-0.3-1-0.3-1.6-0.2l-0.7,0.2l0.3,1c0.2,0.8,0.5,1.3,0.8,1.6
				c0.3,0.3,0.7,0.4,1.2,0.3c0.4-0.1,0.6-0.3,0.7-0.5C13.6,75.4,13.6,75.1,13.5,74.7z"/>
			<path class="st2" d="M9.8,65.7H8.4l-0.1-6.3h1.4L9.8,65.7z"/>
			<path class="st2" d="M3.1,51.7l0.7-3.1c0.3-1.4,0.8-2.4,1.4-3c0.6-0.5,1.3-0.7,2.2-0.5c0.6,0.1,1.1,0.4,1.4,0.8
				c0.3,0.4,0.5,0.9,0.4,1.5h0.1c0.3-0.7,0.7-1.2,1.2-1.4s1.1-0.3,1.8-0.1c0.9,0.2,1.6,0.7,2,1.5s0.4,1.7,0.2,2.9l-0.9,3.8L3.1,51.7
				z M7.8,51l0.4-1.6c0.2-0.7,0.2-1.3,0-1.6c-0.1-0.4-0.5-0.6-1-0.8c-0.5-0.1-0.9,0-1.2,0.3c-0.3,0.3-0.5,0.8-0.7,1.6L5,50.4L7.8,51
				z M9.2,51.3l3.3,0.8l0.4-1.8c0.2-0.7,0.2-1.3,0-1.7s-0.6-0.7-1.2-0.8c-0.5-0.1-1,0-1.3,0.3s-0.6,0.8-0.8,1.6L9.2,51.3z"/>
			<path class="st2" d="M18.4,47.3c-0.2,0.4-0.4,0.8-0.6,1.1l-1.4-0.5c0.2-0.3,0.4-0.7,0.5-0.9c0.3-0.9,0-1.6-1.2-2L6,41.2l0.6-1.6
				l9.6,3.7c1,0.4,1.7,0.9,2.1,1.6C18.7,45.5,18.7,46.3,18.4,47.3z"/>
			<path class="st2" d="M19.8,43.5c-0.2,0.4-0.4,0.8-0.7,1l-1.3-0.7c0.3-0.3,0.5-0.6,0.6-0.9c0.4-0.9,0.1-1.6-1-2.1l-9.3-4.6
				l0.8-1.6l9.3,4.6c1,0.5,1.6,1.1,1.9,1.8C20.3,41.8,20.2,42.6,19.8,43.5z"/>
			<path class="st2" d="M20.1,34.2c0.2-0.4,0.4-0.7,0.5-1.2l1.1,0.7c0,0.2-0.1,0.5-0.2,0.7c-0.1,0.3-0.3,0.6-0.4,0.8
				c-0.9,1.4-2,1.6-3.5,0.7l-3.7-2.3l-0.6,0.9l-0.6-0.4l0.1-1.3l-1.1-1.4l0.6-0.9l1.5,1l1.2-2l1.1,0.7l-1.2,2l3.7,2.3
				c0.4,0.2,0.7,0.3,0.9,0.2S19.9,34.5,20.1,34.2z"/>
			<path class="st2" d="M24.1,24.6c1,0.9,1.6,1.8,1.7,2.8s-0.2,2-1,2.9c-0.5,0.6-1.1,1-1.7,1.2s-1.3,0.2-2,0.1
				c-0.7-0.2-1.4-0.5-2-1.1c-1-0.9-1.6-1.8-1.7-2.8s0.2-2,1-2.9s1.6-1.4,2.7-1.4C22.1,23.4,23.1,23.8,24.1,24.6z M20.3,29.1
				c1.4,1.2,2.6,1.3,3.5,0.2c0.9-1,0.6-2.2-0.8-3.4c-1.4-1.2-2.6-1.3-3.5-0.2c-0.5,0.5-0.6,1.1-0.5,1.7C19.2,28,19.6,28.5,20.3,29.1
				z"/>
			<path class="st2" d="M26.9,21.9v-1.6l0.2-3.6l1.5-1.3l-0.3,4.8l5.6,1.3l-1.6,1.3L28,21.7L27.9,23l1.8,2.1l-1.3,1.1l-7.3-8.8
				l1.3-1.1l3.6,4.3L26.9,21.9L26.9,21.9z"/>
			<path class="st2" d="M37.9,19.5c-1.1,0.6-2.1,0.8-3.1,0.5s-1.8-1-2.4-2.1c-0.7-1.1-0.9-2.2-0.7-3.2c0.2-1,0.8-1.8,1.8-2.3
				c0.9-0.5,1.8-0.7,2.7-0.4s1.6,0.9,2.1,1.9l0.5,0.8L34,17.3c0.4,0.7,0.9,1.1,1.5,1.2s1.2,0.1,1.8-0.3c0.4-0.2,0.8-0.5,1.1-0.8
				s0.6-0.6,0.9-1.1l0.7,1.2c-0.3,0.4-0.6,0.7-0.9,1C38.7,19,38.3,19.2,37.9,19.5z M34,13.5c-0.5,0.3-0.8,0.6-0.9,1.1
				c-0.1,0.5,0,1,0.3,1.6l3.2-1.8c-0.3-0.6-0.7-0.9-1.2-1.1C35,13.2,34.5,13.3,34,13.5z"/>
			<path class="st2" d="M48.6,14.7L47,15.3l-1.7-4.7c-0.2-0.6-0.5-1-0.8-1.2s-0.8-0.2-1.3,0c-0.7,0.2-1.1,0.6-1.3,1.2
				c-0.2,0.5-0.1,1.3,0.3,2.2l1.4,3.8L42,17.2l-2.8-7.6l1.3-0.5l0.6,0.9h0.1c0.1-0.4,0.3-0.8,0.7-1.2C42.1,8.4,42.5,8.2,43,8
				c1.8-0.7,3.1-0.1,3.8,1.8L48.6,14.7z"/>
			<path class="st2" d="M53.1,10.3L53,9l6.3-0.7l0.1,1.4L53.1,10.3z"/>
		</g>
		<path id="SVGID_x5F_1_x5F_" class="st6" d="M-189.5,90.1c0-27,21.8-48.8,48.8-48.8s48.8,21.8,48.8,48.8s-21.8,48.8-48.8,48.8
			S-189.5,117-189.5,90.1z"/>
		<text transform="matrix(0.8484 0.5293 -0.5293 0.8484 -116.2771 47.7859)" class="st7 st8"> </text>
		
			<text transform="matrix(0.7806 0.6251 -0.6251 0.7806 -113.3613 49.4399)" class="st2" style="font-family:'OpenSans-SemiBold'; font-size:15px;">L</text>
		
			<text transform="matrix(0.6625 0.7491 -0.7491 0.6625 -106.9842 54.5216)" class="st2" style="font-family:'OpenSans-SemiBold'; font-size:15px;">e</text>
		
			<text transform="matrix(0.5157 0.8568 -0.8568 0.5157 -101.224 61.0021)" class="st2" style="font-family:'OpenSans-SemiBold'; font-size:15px;">o</text>
		
			<text transform="matrix(0.3962 0.9182 -0.9182 0.3962 -96.6508 68.9415)" class="st2" style="font-family:'OpenSans-SemiBold'; font-size:15px;"> </text>
		
			<text transform="matrix(0.2676 0.9635 -0.9635 0.2676 -94.9292 72.467)" class="st2" style="font-family:'OpenSans-SemiBold'; font-size:15px;">V</text>
		
			<text transform="matrix(0.1318 0.9913 -0.9913 0.1318 -92.6056 81.5043)" class="st2" style="font-family:'OpenSans-SemiBold'; font-size:15px;">i</text>
		
			<text transform="matrix(2.581932e-03 1 -1 2.581932e-03 -91.9114 85.6492)" class="st2" style="font-family:'OpenSans-SemiBold'; font-size:15px;">e</text>
		
			<text transform="matrix(-0.1496 0.9887 -0.9887 -0.1496 -91.9695 94.3007)" class="st2" style="font-family:'OpenSans-SemiBold'; font-size:15px;">r</text>
		
			<text transform="matrix(-0.3015 0.9535 -0.9535 -0.3015 -92.8568 100.7298)" class="st2" style="font-family:'OpenSans-SemiBold'; font-size:15px;">a</text>
		
			<text transform="matrix(-0.4225 0.9064 -0.9064 -0.4225 -95.6283 108.9778)" class="st2" style="font-family:'OpenSans-SemiBold'; font-size:15px;"> </text>
		
			<text transform="matrix(-0.5256 0.8507 -0.8507 -0.5256 -97.1853 112.5649)" class="st2" style="font-family:'OpenSans-SemiBold'; font-size:15px;">–</text>
		
			<text transform="matrix(-0.6211 0.7837 -0.7837 -0.6211 -101.2169 118.8906)" class="st2" style="font-family:'OpenSans-SemiBold'; font-size:15px;"> </text>
		
			<text transform="matrix(-0.7251 0.6886 -0.6886 -0.7251 -103.4886 122.0976)" class="st2" style="font-family:'OpenSans-SemiBold'; font-size:15px;">B</text>
		
			<text transform="matrix(-0.8182 0.5749 -0.5749 -0.8182 -110.8069 128.771)" class="st2" style="font-family:'OpenSans-SemiBold'; font-size:15px;">J</text>
		
			<text transform="matrix(-0.8676 0.4973 -0.4973 -0.8676 -114.4773 131.35)" class="st2" style="font-family:'OpenSans-SemiBold'; font-size:15px;">J</text>
		
			<text transform="matrix(-0.9157 0.4019 -0.4019 -0.9157 -118.3526 133.6155)" class="st2" style="font-family:'OpenSans-SemiBold'; font-size:15px;">t</text>
		
			<text transform="matrix(-0.9668 0.2554 -0.2554 -0.9668 -123.7257 136.1096)" class="st2" style="font-family:'OpenSans-SemiBold'; font-size:15px;">o</text>
		
			<text transform="matrix(-0.9971 7.663740e-02 -7.663740e-02 -0.9971 -132.6116 138.4254)" class="st2" style="font-family:'OpenSans-SemiBold'; font-size:15px;">k</text>
		
			<text transform="matrix(-0.9953 -9.680401e-02 9.680401e-02 -0.9953 -141.1856 139.0878)" class="st2" style="font-family:'OpenSans-SemiBold'; font-size:15px;">e</text>
		
			<text transform="matrix(-0.96 -0.28 0.28 -0.96 -149.8217 138.2864)" class="st2" style="font-family:'OpenSans-SemiBold'; font-size:15px;">n</text>
		
			<text transform="matrix(-0.9121 -0.4099 0.4099 -0.9121 -158.9048 135.4353)" class="st2" style="font-family:'OpenSans-SemiBold'; font-size:15px;"> </text>
		
			<text transform="matrix(-0.858 -0.5137 0.5137 -0.858 -162.5133 133.9278)" class="st2" style="font-family:'OpenSans-SemiBold'; font-size:15px;">–</text>
		
			<text transform="matrix(-0.7924 -0.61 0.61 -0.7924 -168.8939 129.9849)" class="st2" style="font-family:'OpenSans-SemiBold'; font-size:15px;"> </text>
		
			<text transform="matrix(-0.7118 -0.7024 0.7024 -0.7118 -172.0738 127.6991)" class="st2" style="font-family:'OpenSans-SemiBold'; font-size:15px;">L</text>
		
			<text transform="matrix(-0.6184 -0.7859 0.7859 -0.6184 -177.7753 121.8995)" class="st2" style="font-family:'OpenSans-SemiBold'; font-size:15px;">l</text>
		
			<text transform="matrix(-0.5104 -0.8599 0.8599 -0.5104 -180.487 118.6873)" class="st2" style="font-family:'OpenSans-SemiBold'; font-size:15px;">e</text>
		
			<text transform="matrix(-0.3453 -0.9385 0.9385 -0.3453 -184.931 111.2441)" class="st2" style="font-family:'OpenSans-SemiBold'; font-size:15px;">o</text>
		
			<text transform="matrix(-0.1611 -0.9869 0.9869 -0.1611 -188.1091 102.6182)" class="st2" style="font-family:'OpenSans-SemiBold'; font-size:15px;">V</text>
		<text class="st7 st8"> </text>
	</g>
	<g id="Layer_4">
		<g>
			<circle class="st9" cx="61.5" cy="62.4" r="4.2"/>
			<g id="Icon_147_00000123439226354072437630000002882131378227703705_">
				<g>
					<path class="st5" d="M29.2,81.2c-2.6-0.7-5.1-1.7-7.6-3c-3.4-8.3-4.2-17.6-2.2-26.3l5.4,1.2C22.5,62.6,24.1,72.9,29.2,81.2z
						 M61.2,23.6c-4.9,0.1-9.7,1.1-14.2,3s-8.6,4.6-12,8l-3.8-3.9c6.3-6.3,14.7-10.6,23.5-12C57.1,20.2,59.3,21.8,61.2,23.6z
						 M25.9,49.2c-0.2,0.7-0.4,1.3-0.6,2L20,49.7c0.2-0.8,0.5-1.5,0.7-2.3L25.9,49.2z M27.3,45.7c-0.3,0.6-0.6,1.3-0.8,1.9l-5.1-2
						c0.3-0.7,0.6-1.5,0.9-2.2L27.3,45.7z M29,42.3c-0.3,0.6-0.7,1.2-1,1.8l-4.9-2.5c0.4-0.7,0.8-1.4,1.2-2.1L29,42.3z M31.1,39.2
						c-0.4,0.6-0.8,1.1-1.2,1.7l-4.6-3c0.5-0.7,0.9-1.3,1.4-2L31.1,39.2z M33.5,36.2c-0.5,0.5-0.9,1.1-1.4,1.6l-4.3-3.4
						c0.5-0.6,1-1.2,1.5-1.8L33.5,36.2z"/>
				</g>
				<g>
					<path class="st5" d="M95.1,80.2c0.7,2.5,1.1,5.3,1.2,8.1c-2.7,3.5-6,6.6-9.7,9.2c-3.7,2.5-7.7,4.5-12,5.8L73,98.1
						c4.6-1.4,9-3.7,12.8-6.8C89.5,88.2,92.7,84.4,95.1,80.2z M29.2,81.2C31.7,85.4,35,89,38.8,92c3.9,2.9,8.3,5.1,13,6.4l-1.4,5.3
						c-4.3-1.2-8.4-3-12.2-5.5c-3.7-2.4-7.1-5.4-9.9-8.9C28.2,86.5,28.6,83.8,29.2,81.2z M69,99l1-0.2l1-0.2l1.3,5.3l-1.2,0.3
						l-1.2,0.2L69,99z M65.2,99.6l1-0.1l1-0.1l0.8,5.4l-1.2,0.2l-1.2,0.1L65.2,99.6z M61.5,99.7c0.3,0,0.7,0,1,0h1l0.2,5.5h-1.2
						c-0.4,0-0.8,0-1.2,0L61.5,99.7z M57.7,99.5c0.7,0.1,1.4,0.1,2.1,0.2l-0.3,5.5c-0.8,0-1.6-0.1-2.4-0.2L57.7,99.5z M54,98.9
						c0.7,0.2,1.4,0.3,2,0.4l-0.8,5.4c-0.8-0.1-1.6-0.2-2.3-0.4L54,98.9z"/>
				</g>
				<g>
					<path class="st5" d="M61.2,23.6c1.9-1.8,4-3.6,6.4-5.1c8.9,1.1,17.3,5.2,23.9,11.3l-3.7,4c-3.6-3.3-7.7-5.9-12.3-7.7
						C70.6,24,65.5,23,61.2,23.6z M95.1,80.2c4.8-8.5,6.1-18.8,3.6-28.2l5.3-1.4c2.3,8.6,1.8,18-1.4,26.3
						C100.1,78.4,97.6,79.4,95.1,80.2z M90.6,36.8c-0.5-0.5-0.9-1.1-1.4-1.5l3.9-3.8c0.6,0.6,1.1,1.2,1.6,1.8L90.6,36.8z M93,39.8
						c-0.4-0.6-0.8-1.1-1.2-1.7l4.3-3.4c0.5,0.6,0.9,1.3,1.4,1.9L93,39.8z M95,42.9c-0.4-0.6-0.7-1.2-1.1-1.8l4.6-3
						c0.4,0.7,0.8,1.4,1.2,2L95,42.9z M96.7,46.3c-0.3-0.6-0.6-1.3-0.9-1.9l4.9-2.5c0.4,0.7,0.7,1.4,1,2.1L96.7,46.3z M98,49.8
						c-0.2-0.7-0.5-1.3-0.7-2l5.1-2c0.3,0.7,0.5,1.5,0.8,2.2L98,49.8z"/>
				</g>
			</g>
		</g>
	</g>
</g>
<g id="Layer_2">
</g>
</svg>
