<?xml version="1.0" encoding="utf-8"?>
<!-- Generator: Adobe Illustrator 26.0.1, SVG Export Plug-In . SVG Version: 6.00 Build 0)  -->
<svg version="1.1" xmlns="http://www.w3.org/2000/svg" xmlns:xlink="http://www.w3.org/1999/xlink" x="0px" y="0px"
	 viewBox="0 0 123.7 123.7" style="enable-background:new 0 0 123.7 123.7;" xml:space="preserve">
<style type="text/css">
	.st0{display:none;}
	.st1{display:inline;fill:#494949;}
	.st2{display:inline;}
	.st3{fill:#FFFFFF;}
	.st4{fill:none;stroke:#FFFFFF;stroke-width:1.5241;stroke-miterlimit:10;}
	.st5{fill:#52C8EB;stroke:#FFFFFF;stroke-miterlimit:10;}
	.st6{fill:none;stroke:#FFFFFF;stroke-miterlimit:10;}
	.st7{fill:none;}
</style>
<g id="Layer_3" class="st0">
	<rect x="-14.1" y="-9.8" class="st1" width="147.3" height="141.6"/>
</g>
<g id="Layer_2">
</g>
<g id="Layer_1">
	<g id="Layer_1_00000160876464085163967450000014991979441060801928_" class="st0">
		<g id="Layer_2_00000059300689547421745360000008651144956583061394_" class="st2">
		</g>
		<g class="st2">
			<path class="st3" d="M67.8,1.9l2.9,0.4c1.4,0.2,2.3,0.5,2.9,1c0.5,0.5,0.8,1.2,0.6,2c-0.1,0.6-0.3,1-0.7,1.4
				c-0.4,0.3-0.8,0.5-1.4,0.5v0.1c0.7,0.2,1.1,0.6,1.4,1c0.3,0.4,0.4,1,0.3,1.6c-0.1,0.9-0.5,1.5-1.2,2c-0.7,0.4-1.6,0.5-2.7,0.4
				l-3.6-0.5L67.8,1.9z M68.7,7.5l-0.5,3.1l1.7,0.2c0.7,0.1,1.2,0,1.6-0.2s0.6-0.6,0.7-1.2c0.1-0.5,0-0.9-0.4-1.2
				c-0.3-0.3-0.8-0.5-1.5-0.6L68.7,7.5z M68.9,6.2l1.6,0.2c0.7,0.1,1.2,0.1,1.5-0.1s0.6-0.5,0.6-1c0.1-0.5-0.1-0.8-0.4-1.1
				s-0.8-0.4-1.6-0.5l-1.4-0.2L68.9,6.2z"/>
			<path class="st3" d="M80.9,15.2l0.1-1h-0.1c-0.3,0.3-0.7,0.4-1.2,0.5s-0.9,0-1.4-0.2c-0.9-0.3-1.4-0.7-1.7-1.3s-0.3-1.3,0-2.2
				l1.6-4.7l1.5,0.5l-1.5,4.4c-0.2,0.5-0.2,1-0.1,1.3c0.1,0.4,0.4,0.6,0.9,0.8c0.6,0.2,1.2,0.2,1.6-0.1s0.8-0.9,1.1-1.8L83,7.9
				l1.5,0.5L82,15.5L80.9,15.2z"/>
			<path class="st3" d="M87.2,18.5c-1-0.6-1.6-1.3-1.8-2.1c-0.2-0.9,0-1.9,0.6-2.9c0.6-1.1,1.4-1.8,2.2-2.1c0.9-0.3,1.8-0.2,2.9,0.4
				c0.7,0.4,1.3,0.9,1.7,1.4l-1,0.8c-0.5-0.6-0.9-0.9-1.3-1.2c-1.1-0.6-2.1-0.2-3,1.3c-0.4,0.7-0.6,1.4-0.5,1.9
				c0.1,0.5,0.4,0.9,0.9,1.3c0.6,0.3,1.3,0.5,2,0.5L89.2,19c-0.3,0-0.7,0-1-0.1S87.7,18.7,87.2,18.5z"/>
			<path class="st3" d="M96.3,24.8l-1.3-1l2.9-3.6c0.4-0.5,0.5-0.9,0.5-1.2c0-0.4-0.2-0.7-0.6-1c-0.5-0.4-1-0.6-1.5-0.5
				s-1,0.5-1.6,1.3l-2.3,2.9l-1.3-1l6.7-8.3l1.3,1l-1.7,2.1c-0.3,0.3-0.6,0.7-0.9,1l0.1,0.1c0.4-0.1,0.8-0.2,1.2-0.1
				c0.4,0.1,0.8,0.3,1.3,0.6c1.4,1.1,1.6,2.4,0.4,3.9L96.3,24.8z"/>
			<path class="st3" d="M100.3,29.3c-0.8-0.9-1.1-1.8-1-2.8s0.6-1.8,1.5-2.6c0.9-0.8,1.9-1.2,2.8-1.2s1.8,0.4,2.5,1.2
				c0.7,0.8,0.9,1.5,0.9,2.4c-0.1,0.8-0.5,1.6-1.3,2.3l-0.7,0.6l-3.3-3.8c-0.5,0.5-0.8,1-0.9,1.6c-0.1,0.5,0.1,1.1,0.6,1.6
				c0.3,0.3,0.6,0.6,0.9,0.9c0.3,0.2,0.7,0.5,1.1,0.7l-1,0.9c-0.4-0.2-0.8-0.4-1.1-0.6S100.7,29.7,100.3,29.3z M105.1,24.8
				c-0.3-0.4-0.7-0.6-1.2-0.6c-0.4,0-0.9,0.2-1.4,0.5l2.2,2.6c0.5-0.4,0.7-0.8,0.8-1.3S105.5,25.2,105.1,24.8z"/>
			<path class="st3" d="M105.2,36.1c-0.6-1-0.8-1.9-0.5-2.7c0.3-0.9,0.9-1.6,2-2.3c1.1-0.7,2.1-0.9,3-0.7s1.7,0.8,2.3,1.8
				c0.4,0.7,0.7,1.4,0.8,2.1l-1.4,0.3c-0.1-0.7-0.3-1.3-0.5-1.6c-0.7-1.1-1.8-1.2-3.2-0.3c-0.7,0.4-1.2,0.9-1.4,1.4
				c-0.2,0.5-0.1,1,0.2,1.6c0.4,0.6,0.9,1.1,1.5,1.4l-1.2,0.7c-0.3-0.2-0.6-0.4-0.8-0.6C105.7,36.9,105.5,36.5,105.2,36.1z"/>
			<path class="st3" d="M110,46.1l-0.6-1.5l4.3-1.7c0.5-0.2,0.9-0.5,1.1-0.8s0.2-0.7,0-1.2c-0.3-0.6-0.6-1-1.1-1.2
				c-0.5-0.1-1.2,0-2.1,0.3l-3.5,1.4l-0.6-1.5l9.9-4l0.6,1.5l-2.5,1c-0.4,0.2-0.8,0.3-1.3,0.4v0.1c0.4,0.1,0.8,0.2,1.1,0.5
				c0.3,0.3,0.6,0.7,0.8,1.2c0.7,1.7,0.2,2.9-1.5,3.6L110,46.1z"/>
			<path class="st3" d="M111.7,53.4l1-0.5v-0.1c-0.5-0.3-0.9-0.6-1.1-0.9c-0.2-0.3-0.4-0.8-0.5-1.3c-0.1-0.7-0.1-1.3,0.2-1.8
				c0.3-0.5,0.8-0.8,1.5-1c0.8-0.2,1.4,0,1.9,0.5s0.9,1.3,1.2,2.5l0.3,1.3l0.4-0.1c0.5-0.1,0.8-0.3,1-0.5c0.2-0.3,0.2-0.6,0.1-1.1
				c-0.1-0.4-0.2-0.7-0.4-1.1c-0.2-0.3-0.4-0.6-0.6-0.9l1-0.7c0.3,0.4,0.5,0.8,0.7,1.2c0.2,0.5,0.4,0.9,0.4,1.3
				c0.2,0.9,0.1,1.7-0.2,2.3s-0.9,0.9-1.8,1.1l-5,1L111.7,53.4z M112.3,50.8c0.1,0.6,0.4,1,0.8,1.3s0.9,0.4,1.4,0.2l0.6-0.1
				l-0.2-0.9c-0.2-0.7-0.4-1.2-0.7-1.5c-0.3-0.3-0.7-0.4-1.1-0.3c-0.3,0.1-0.6,0.2-0.7,0.5C112.3,50.1,112.2,50.5,112.3,50.8z"/>
			<path class="st3" d="M115.4,61.2h1.4l-0.1,3.5h-1.4L115.4,61.2z"/>
			<path class="st3" d="M121.1,74l-0.8,2.9c-0.4,1.3-0.8,2.2-1.4,2.7s-1.2,0.6-2.1,0.4c-0.6-0.2-1-0.4-1.3-0.8s-0.4-0.9-0.4-1.4H115
				c-0.3,0.6-0.7,1.1-1.2,1.3c-0.5,0.2-1,0.2-1.7,0.1c-0.9-0.2-1.5-0.7-1.8-1.5c-0.3-0.7-0.3-1.6-0.1-2.7l0.9-3.5L121.1,74z
				 M115.4,74.2l-3.1-0.8l-0.5,1.7c-0.2,0.7-0.2,1.2,0,1.6s0.5,0.7,1.1,0.8c0.5,0.1,0.9,0.1,1.3-0.2c0.3-0.3,0.6-0.8,0.8-1.5
				L115.4,74.2z M116.7,74.5l-0.4,1.5c-0.2,0.7-0.2,1.2-0.1,1.5s0.4,0.6,0.9,0.7s0.8,0,1.1-0.2s0.5-0.8,0.7-1.5l0.4-1.4L116.7,74.5z
				"/>
			<path class="st3" d="M106.5,78.6c0.2-0.4,0.4-0.7,0.6-1l1.3,0.5c-0.2,0.3-0.4,0.6-0.5,0.9c-0.4,0.8,0,1.5,1,1.9l8.9,3.9l-0.7,1.5
				l-8.8-3.9c-0.9-0.4-1.6-0.9-1.9-1.6S106.1,79.4,106.5,78.6z"/>
			<path class="st3" d="M104.6,82.8c0.2-0.4,0.5-0.7,0.7-0.9l1.2,0.7c-0.3,0.3-0.5,0.6-0.6,0.8c-0.4,0.8-0.2,1.4,0.8,2l8.5,4.7
				l-0.8,1.4l-8.4-4.7c-0.9-0.5-1.5-1.1-1.7-1.8S104.1,83.6,104.6,82.8z"/>
			<path class="st3" d="M101.9,92.2l1-1.3l6.9,5.2l1.8-2.3l1.1,0.8l-4.5,6l-1.1-0.8l1.8-2.3L101.9,92.2z"/>
			<path class="st3" d="M96.5,103.3c-0.8-0.9-1.3-1.8-1.3-2.8s0.4-1.8,1.2-2.6c0.5-0.5,1.1-0.8,1.7-0.9s1.2-0.1,1.9,0.2
				c0.6,0.2,1.2,0.6,1.7,1.2c0.8,0.9,1.3,1.8,1.3,2.7s-0.4,1.8-1.2,2.6c-0.8,0.7-1.7,1.1-2.6,1C98.2,104.6,97.3,104.1,96.5,103.3z
				 M100.5,99.5c-1.2-1.3-2.3-1.5-3.2-0.6c-0.9,0.9-0.8,1.9,0.4,3.2c1.2,1.3,2.2,1.5,3.2,0.6c0.5-0.5,0.7-1,0.6-1.5
				S101.1,100.1,100.5,99.5z"/>
			<path class="st3" d="M92.8,106.1l-0.1,1.4l-0.6,3.3l-1.6,1l0.8-4.4l-5.1-1.9l1.6-1l3.8,1.5l0.4-1l-1.4-2.2l1.3-0.9l5.8,8.9
				l-1.3,0.9l-2.8-4.4L92.8,106.1L92.8,106.1z"/>
			<path class="st3" d="M81.6,107.5c1.1-0.5,2.1-0.5,2.9-0.1c0.9,0.4,1.6,1.1,2,2.2c0.5,1.1,0.6,2.1,0.3,3c-0.3,0.9-0.9,1.5-1.9,2
				c-0.9,0.4-1.8,0.4-2.5,0.1c-0.8-0.3-1.4-1-1.8-2l-0.3-0.8l4.6-2c-0.3-0.7-0.7-1.1-1.2-1.3c-0.5-0.2-1.1-0.2-1.7,0.1
				c-0.4,0.2-0.8,0.4-1.1,0.6c-0.3,0.2-0.6,0.5-1,0.9l-0.5-1.2c0.3-0.3,0.6-0.6,0.9-0.8C80.7,108,81.1,107.7,81.6,107.5z
				 M84.4,113.5c0.5-0.2,0.8-0.5,0.9-0.9c0.2-0.4,0.1-0.9,0-1.5l-3.2,1.3c0.3,0.6,0.6,0.9,1,1.1S83.9,113.7,84.4,113.5z"/>
			<path class="st3" d="M70.2,111l1.6-0.4l1,4.5c0.1,0.6,0.3,1,0.6,1.2c0.3,0.2,0.7,0.3,1.2,0.2c0.7-0.1,1.1-0.5,1.3-0.9
				c0.2-0.5,0.2-1.2,0-2.1l-0.8-3.7l1.6-0.4l1.7,7.4l-1.2,0.3l-0.4-0.9h-0.1c-0.1,0.4-0.4,0.7-0.8,1s-0.8,0.5-1.3,0.6
				c-1.8,0.4-2.9-0.3-3.3-2.1L70.2,111z"/>
			<path class="st3" d="M63.5,114.6v1.4l-3.5-0.1v-1.4L63.5,114.6z"/>
			<path class="st3" d="M50.8,120.4l-2.9-0.7c-1.3-0.3-2.2-0.8-2.7-1.3s-0.6-1.2-0.4-2.1c0.1-0.6,0.4-1,0.8-1.3s0.9-0.4,1.4-0.4
				v-0.1c-0.6-0.3-1.1-0.7-1.3-1.1c-0.2-0.5-0.3-1-0.1-1.7c0.2-0.9,0.7-1.5,1.4-1.8s1.6-0.4,2.7-0.1l3.5,0.9L50.8,120.4z M50.2,116
				l-1.5-0.4c-0.7-0.2-1.2-0.2-1.5-0.1c-0.4,0.1-0.6,0.4-0.7,1c-0.1,0.5,0,0.8,0.2,1.1c0.3,0.3,0.8,0.5,1.5,0.7l1.4,0.4L50.2,116z
				 M50.6,114.7l0.8-3.1l-1.7-0.4c-0.7-0.2-1.2-0.2-1.6,0c-0.4,0.2-0.7,0.5-0.8,1.1c-0.1,0.5-0.1,0.9,0.2,1.3s0.8,0.6,1.5,0.8
				L50.6,114.7z"/>
			<path class="st3" d="M39.2,105.8l-0.2,1h0.1c0.4-0.2,0.8-0.3,1.2-0.3c0.5,0,0.9,0.1,1.4,0.3c0.8,0.4,1.3,0.9,1.6,1.5
				c0.2,0.6,0.1,1.3-0.3,2.2l-2.1,4.5l-1.5-0.7l2-4.2c0.2-0.5,0.3-1,0.2-1.3s-0.4-0.7-0.8-0.9c-0.6-0.3-1.1-0.3-1.6-0.1
				c-0.5,0.2-0.9,0.8-1.3,1.6l-1.6,3.4l-1.5-0.7l3.2-6.8L39.2,105.8z"/>
			<path class="st3" d="M33.3,101.9c0.9,0.7,1.5,1.4,1.6,2.3s-0.2,1.8-0.9,2.9c-0.7,1-1.5,1.7-2.5,1.9c-0.9,0.2-1.8,0-2.8-0.7
				c-0.7-0.5-1.2-1-1.5-1.6l1.1-0.8c0.4,0.6,0.8,1,1.1,1.3c1.1,0.8,2.1,0.4,3.1-1c0.5-0.7,0.7-1.3,0.7-1.8s-0.3-1-0.8-1.3
				c-0.6-0.4-1.2-0.7-2-0.7l0.8-1.1c0.3,0,0.7,0.1,1,0.2C32.5,101.4,32.9,101.6,33.3,101.9z"/>
			<path class="st3" d="M24.9,94.6l1.1,1.1L22.8,99c-0.4,0.4-0.6,0.8-0.7,1.2s0.1,0.7,0.5,1.1c0.5,0.5,1,0.7,1.5,0.6
				s1.1-0.4,1.8-1.1l2.6-2.7l1.1,1.1l-7.5,7.5l-1.1-1.1l1.9-1.9c0.3-0.3,0.7-0.6,1-0.9l-0.1-0.1c-0.4,0.1-0.8,0.1-1.2,0
				c-0.4-0.1-0.8-0.4-1.2-0.7c-1.3-1.3-1.3-2.6,0-3.9L24.9,94.6z"/>
			<path class="st3" d="M21.5,89.8c0.7,0.9,0.9,1.8,0.7,2.7c-0.2,0.9-0.8,1.7-1.8,2.4c-1,0.7-2,1.1-2.9,0.9
				c-0.9-0.1-1.7-0.6-2.4-1.6c-0.5-0.6-0.8-1.3-0.9-2l1.3-0.4c0.2,0.7,0.4,1.2,0.7,1.6c0.8,1.1,1.8,1.1,3.3,0.1
				c0.7-0.5,1.1-1,1.3-1.5c0.2-0.5,0.1-1-0.3-1.5c-0.4-0.6-1-1-1.6-1.3l1.1-0.8c0.3,0.1,0.6,0.3,0.8,0.5
				C21,89.2,21.3,89.5,21.5,89.8z"/>
			<path class="st3" d="M16.1,80.2l0.7,1.5l-4.2,2c-0.5,0.3-0.9,0.5-1,0.9c-0.2,0.3-0.1,0.7,0.1,1.2c0.3,0.6,0.7,1,1.2,1.1
				s1.2,0,2-0.5l3.4-1.6l0.7,1.4l-9.6,4.6l-0.7-1.4l2.4-1.2c0.4-0.2,0.8-0.4,1.3-0.5v-0.1c-0.4,0-0.8-0.2-1.2-0.5s-0.6-0.6-0.9-1.1
				c-0.8-1.7-0.4-2.9,1.3-3.7L16.1,80.2z"/>
			<path class="st3" d="M13.9,73L13,73.6v0.1c0.5,0.2,0.9,0.5,1.2,0.8s0.5,0.7,0.6,1.3c0.2,0.7,0.2,1.3-0.1,1.8s-0.8,0.9-1.5,1.1
				c-0.8,0.2-1.4,0.1-1.9-0.4s-1-1.2-1.3-2.4l-0.4-1.2l-0.4,0.1c-0.5,0.1-0.8,0.3-1,0.6C8,75.7,8,76.1,8.1,76.5s0.3,0.7,0.5,1
				s0.4,0.6,0.7,0.9l-1,0.8C8,78.9,7.7,78.5,7.5,78c-0.2-0.4-0.4-0.9-0.5-1.3c-0.3-0.9-0.2-1.7,0-2.3c0.3-0.6,0.8-1,1.7-1.2l4.9-1.3
				L13.9,73z M13.5,75.6c-0.2-0.6-0.4-1-0.8-1.2c-0.4-0.3-0.9-0.3-1.5-0.1l-0.6,0.2l0.3,0.9c0.2,0.7,0.5,1.2,0.8,1.5
				s0.7,0.3,1.1,0.2c0.3-0.1,0.6-0.3,0.7-0.5S13.6,76,13.5,75.6z"/>
			<path class="st3" d="M9.6,65.5l-1.4,0.1L8.1,62h1.4L9.6,65.5z"/>
			<path class="st3" d="M3.1,53.1l0.6-2.9c0.3-1.3,0.7-2.3,1.2-2.8s1.2-0.7,2-0.5c0.6,0.1,1,0.4,1.3,0.7C8.5,48,8.7,48.4,8.7,49h0.1
				c0.3-0.7,0.6-1.1,1.1-1.4s1-0.3,1.6-0.2c0.9,0.2,1.5,0.6,1.9,1.3s0.5,1.6,0.2,2.7L12.9,55L3.1,53.1z M7.5,52.3l0.3-1.5
				c0.1-0.7,0.1-1.2,0-1.5s-0.5-0.6-1-0.7c-0.5-0.1-0.8,0-1.1,0.3c-0.3,0.3-0.5,0.8-0.6,1.5l-0.3,1.4L7.5,52.3z M8.8,52.5l3.1,0.6
				l0.3-1.7c0.1-0.7,0.1-1.2-0.1-1.6c-0.2-0.4-0.6-0.6-1.1-0.8c-0.5-0.1-0.9,0-1.2,0.3s-0.5,0.8-0.7,1.5L8.8,52.5z"/>
			<path class="st3" d="M17.5,47.6c-0.2,0.4-0.3,0.8-0.5,1l-1.3-0.5c0.2-0.3,0.4-0.6,0.5-0.9c0.3-0.8-0.1-1.5-1.1-1.8L6,42.1
				l0.6-1.5l9.1,3.3c1,0.3,1.6,0.8,2,1.5S17.8,46.7,17.5,47.6z"/>
			<path class="st3" d="M19,43.3c-0.2,0.4-0.4,0.7-0.6,0.9l-1.2-0.6c0.3-0.3,0.4-0.6,0.6-0.8c0.4-0.8,0.1-1.5-1-1.9L8,36.7l0.7-1.5
				l8.7,4.1c0.9,0.4,1.5,1,1.8,1.7C19.5,41.7,19.4,42.4,19,43.3z"/>
			<path class="st3" d="M19.7,33.7c0.2-0.3,0.4-0.7,0.5-1.1l1,0.6c0,0.2-0.1,0.4-0.2,0.7s-0.2,0.5-0.4,0.8c-0.8,1.3-1.9,1.5-3.2,0.7
				l-3.5-2.1l-0.5,0.9l-0.6-0.4l0.1-1.3l-1.1-1.3l0.5-0.8l1.4,0.9l1.1-1.8l1,0.6l-1.1,1.8l3.4,2.1c0.3,0.2,0.6,0.3,0.9,0.2
				S19.5,34,19.7,33.7z"/>
			<path class="st3" d="M24,24c0.9,0.8,1.5,1.7,1.6,2.6s-0.2,1.8-0.9,2.7c-0.5,0.5-1,0.9-1.6,1.1s-1.2,0.2-1.9,0.1
				c-0.6-0.2-1.3-0.5-1.9-1c-0.9-0.8-1.5-1.7-1.6-2.6s0.2-1.8,0.9-2.7c0.7-0.8,1.5-1.3,2.5-1.3S23.1,23.2,24,24z M20.4,28.2
				c1.3,1.1,2.4,1.2,3.2,0.2c0.8-1,0.6-2-0.7-3.2c-1.3-1.1-2.4-1.2-3.2-0.2c-0.4,0.5-0.6,1-0.4,1.5S19.8,27.7,20.4,28.2z"/>
			<path class="st3" d="M27.3,20.8v-1.5l0.2-3.3l1.4-1.2l-0.3,4.4l5.2,1.3l-1.5,1.2l-4-1l-0.2,1.1l1.6,2l-1.2,1l-6.8-8.2l1.2-1
				l3.3,4L27.3,20.8L27.3,20.8z"/>
			<path class="st3" d="M38.3,18.1c-1,0.6-2,0.7-2.9,0.5s-1.7-0.9-2.3-2s-0.8-2.1-0.6-3s0.7-1.6,1.7-2.2c0.9-0.5,1.7-0.6,2.5-0.4
				c0.8,0.2,1.5,0.8,2,1.7l0.4,0.8L34.8,16c0.4,0.6,0.8,1,1.4,1.2c0.5,0.2,1.1,0.1,1.7-0.3c0.4-0.2,0.7-0.5,1-0.7
				c0.3-0.3,0.6-0.6,0.9-1l0.6,1.1c-0.2,0.4-0.5,0.7-0.8,0.9C39.2,17.6,38.8,17.8,38.3,18.1z M34.8,12.5c-0.4,0.3-0.7,0.6-0.8,1
				s0,0.9,0.2,1.5l3-1.7c-0.3-0.5-0.7-0.9-1.1-1C35.7,12.2,35.3,12.2,34.8,12.5z"/>
			<path class="st3" d="M49.3,13.4l-1.5,0.5l-1.5-4.4C46,9,45.8,8.6,45.5,8.4s-0.7-0.2-1.2,0c-0.6,0.2-1,0.6-1.2,1.1
				s-0.1,1.2,0.2,2.1l1.2,3.6L43,15.6l-2.5-7.1L41.7,8l0.5,0.9h0.1c0.1-0.4,0.3-0.8,0.6-1.1s0.7-0.6,1.2-0.7c1.7-0.6,2.9,0,3.5,1.7
				L49.3,13.4z"/>
			<path class="st3" d="M55.5,9.1l-0.1-1.4l3.5-0.3L59,8.7L55.5,9.1z"/>
		</g>
		<g id="Icon_21" class="st2">
			<line class="st4" x1="-82.5" y1="27.3" x2="-60.2" y2="49.6"/>
			<line class="st4" x1="-44.4" y1="65.4" x2="-22.1" y2="87.7"/>
			<line class="st4" x1="-22.1" y1="27.3" x2="-44.4" y2="49.6"/>
			<line class="st4" x1="-60.2" y1="65.4" x2="-82.5" y2="87.7"/>
			<circle class="st5" cx="61.8" cy="61.7" r="4.2"/>
		</g>
		<g id="Icon_147" class="st2">
			<g>
				<path class="st6" d="M29.5,80.5c-2.6-0.7-5.1-1.7-7.6-3c-3.4-8.3-4.2-17.6-2.2-26.3l5.4,1.2C22.8,61.9,24.4,72.2,29.5,80.5z
					 M61.5,22.9c-4.9,0.1-9.7,1.1-14.2,3s-8.6,4.6-12,8L31.5,30c6.3-6.3,14.7-10.6,23.5-12C57.4,19.5,59.6,21.1,61.5,22.9z
					 M26.2,48.5c-0.2,0.7-0.4,1.3-0.6,2L20.3,49c0.2-0.8,0.5-1.5,0.7-2.3L26.2,48.5z M27.6,45c-0.3,0.6-0.6,1.3-0.8,1.9l-5.1-2
					c0.3-0.7,0.6-1.5,0.9-2.2L27.6,45z M29.3,41.6c-0.3,0.6-0.7,1.2-1,1.8l-4.9-2.5c0.4-0.7,0.8-1.4,1.2-2.1L29.3,41.6z M31.4,38.5
					c-0.4,0.6-0.8,1.1-1.2,1.7l-4.6-3c0.5-0.7,0.9-1.3,1.4-2L31.4,38.5z M33.8,35.5c-0.5,0.5-0.9,1.1-1.4,1.6l-4.3-3.4
					c0.5-0.6,1-1.2,1.5-1.8L33.8,35.5z"/>
			</g>
			<g>
				<path class="st6" d="M95.4,79.5c0.7,2.5,1.1,5.3,1.2,8.1c-2.7,3.5-6,6.6-9.7,9.2c-3.7,2.5-7.7,4.5-12,5.8l-1.6-5.2
					c4.6-1.4,9-3.7,12.8-6.8C89.8,87.5,93,83.7,95.4,79.5z M29.5,80.5c2.5,4.2,5.8,7.8,9.6,10.8c3.9,2.9,8.3,5.1,13,6.4l-1.4,5.3
					c-4.3-1.2-8.4-3-12.2-5.5c-3.7-2.4-7.1-5.4-9.9-8.9C28.5,85.8,28.9,83.1,29.5,80.5z M69.3,98.3l1-0.2l1-0.2l1.3,5.3l-1.2,0.3
					l-1.2,0.2L69.3,98.3z M65.5,98.9l1-0.1l1-0.1l0.8,5.4l-1.2,0.2l-1.2,0.1L65.5,98.9z M61.8,99c0.3,0,0.7,0,1,0h1l0.2,5.5h-1.2
					c-0.4,0-0.8,0-1.2,0L61.8,99z M58,98.8c0.7,0.1,1.4,0.1,2.1,0.2l-0.3,5.5c-0.8,0-1.6-0.1-2.4-0.2L58,98.8z M54.3,98.2
					c0.7,0.2,1.4,0.3,2,0.4l-0.8,5.4c-0.8-0.1-1.6-0.2-2.3-0.4L54.3,98.2z"/>
			</g>
			<g>
				<path class="st6" d="M61.5,22.9c1.9-1.8,4-3.6,6.4-5.1c8.9,1.1,17.3,5.2,23.9,11.3l-3.7,4c-3.6-3.3-7.7-5.9-12.3-7.7
					C70.9,23.3,65.9,22.3,61.5,22.9z M95.4,79.5c4.8-8.5,6.1-18.8,3.6-28.2l5.3-1.4c2.3,8.6,1.8,18-1.4,26.3
					C100.4,77.7,97.9,78.7,95.4,79.5z M90.9,36.1c-0.5-0.5-0.9-1.1-1.4-1.5l3.9-3.8c0.6,0.6,1.1,1.2,1.6,1.8L90.9,36.1z M93.3,39.1
					c-0.4-0.6-0.8-1.1-1.2-1.7l4.3-3.4c0.5,0.6,0.9,1.3,1.4,1.9L93.3,39.1z M95.3,42.2c-0.4-0.6-0.7-1.2-1.1-1.8l4.6-3
					c0.4,0.7,0.8,1.4,1.2,2L95.3,42.2z M97,45.6c-0.3-0.6-0.6-1.3-0.9-1.9l4.9-2.5c0.4,0.7,0.7,1.4,1,2.1L97,45.6z M98.3,49.1
					c-0.2-0.7-0.5-1.3-0.7-2l5.1-2c0.3,0.7,0.5,1.5,0.8,2.2L98.3,49.1z"/>
			</g>
		</g>
	</g>
	<g id="LEO">
		<text transform="matrix(1 0 0 1 181.9256 -19.0242)" style="font-family:'ArialMT'; font-size:12px;"> </text>
	</g>
	<g id="Layer_4_00000072994202807903390790000015522421607584294326_">
		<g>
			<circle class="st5" cx="61.5" cy="62.4" r="4.2"/>
			<g id="Icon_147_00000131348773614035207570000007981047499579271298_">
				<g>
					<path class="st6" d="M29.2,81.2c-2.6-0.7-5.1-1.7-7.6-3c-3.4-8.3-4.2-17.6-2.2-26.3l5.4,1.2C22.5,62.6,24.1,72.9,29.2,81.2z
						 M61.2,23.6c-4.9,0.1-9.7,1.1-14.2,3s-8.6,4.6-12,8l-3.8-3.9c6.3-6.3,14.7-10.6,23.5-12C57.1,20.2,59.3,21.8,61.2,23.6z
						 M25.9,49.2c-0.2,0.7-0.4,1.3-0.6,2L20,49.7c0.2-0.8,0.5-1.5,0.7-2.3L25.9,49.2z M27.3,45.7c-0.3,0.6-0.6,1.3-0.8,1.9l-5.1-2
						c0.3-0.7,0.6-1.5,0.9-2.2L27.3,45.7z M29,42.3c-0.3,0.6-0.7,1.2-1,1.8l-4.9-2.5c0.4-0.7,0.8-1.4,1.2-2.1L29,42.3z M31.1,39.2
						c-0.4,0.6-0.8,1.1-1.2,1.7l-4.6-3c0.5-0.7,0.9-1.3,1.4-2L31.1,39.2z M33.5,36.2c-0.5,0.5-0.9,1.1-1.4,1.6l-4.3-3.4
						c0.5-0.6,1-1.2,1.5-1.8L33.5,36.2z"/>
				</g>
				<g>
					<path class="st6" d="M95.1,80.2c0.7,2.5,1.1,5.3,1.2,8.1c-2.7,3.5-6,6.6-9.7,9.2c-3.7,2.5-7.7,4.5-12,5.8L73,98.1
						c4.6-1.4,9-3.7,12.8-6.8C89.5,88.2,92.7,84.4,95.1,80.2z M29.2,81.2C31.7,85.4,35,89,38.8,92c3.9,2.9,8.3,5.1,13,6.4l-1.4,5.3
						c-4.3-1.2-8.4-3-12.2-5.5c-3.7-2.4-7.1-5.4-9.9-8.9C28.2,86.5,28.6,83.8,29.2,81.2z M69,99l1-0.2l1-0.2l1.3,5.3l-1.2,0.3
						l-1.2,0.2L69,99z M65.2,99.6l1-0.1l1-0.1l0.8,5.4l-1.2,0.2l-1.2,0.1L65.2,99.6z M61.5,99.7c0.3,0,0.7,0,1,0h1l0.2,5.5h-1.2
						c-0.4,0-0.8,0-1.2,0L61.5,99.7z M57.7,99.5c0.7,0.1,1.4,0.1,2.1,0.2l-0.3,5.5c-0.8,0-1.6-0.1-2.4-0.2L57.7,99.5z M54,98.9
						c0.7,0.2,1.4,0.3,2,0.4l-0.8,5.4c-0.8-0.1-1.6-0.2-2.3-0.4L54,98.9z"/>
				</g>
				<g>
					<path class="st6" d="M61.2,23.6c1.9-1.8,4-3.6,6.4-5.1c8.9,1.1,17.3,5.2,23.9,11.3l-3.7,4c-3.6-3.3-7.7-5.9-12.3-7.7
						C70.6,24,65.5,23,61.2,23.6z M95.1,80.2c4.8-8.5,6.1-18.8,3.6-28.2l5.3-1.4c2.3,8.6,1.8,18-1.4,26.3
						C100.1,78.4,97.6,79.4,95.1,80.2z M90.6,36.8c-0.5-0.5-0.9-1.1-1.4-1.5l3.9-3.8c0.6,0.6,1.1,1.2,1.6,1.8L90.6,36.8z M93,39.8
						c-0.4-0.6-0.8-1.1-1.2-1.7l4.3-3.4c0.5,0.6,0.9,1.3,1.4,1.9L93,39.8z M95,42.9c-0.4-0.6-0.7-1.2-1.1-1.8l4.6-3
						c0.4,0.7,0.8,1.4,1.2,2L95,42.9z M96.7,46.3c-0.3-0.6-0.6-1.3-0.9-1.9l4.9-2.5c0.4,0.7,0.7,1.4,1,2.1L96.7,46.3z M98,49.8
						c-0.2-0.7-0.5-1.3-0.7-2l5.1-2c0.3,0.7,0.5,1.5,0.8,2.2L98,49.8z"/>
				</g>
			</g>
		</g>
	</g>
	<path id="SVGID_x5F_1_x5F_" class="st7" d="M81.7,17.3c24.4,11.4,34.9,40.3,23.6,64.7S65,117,40.6,105.6S5.7,65.3,17,40.9
		S57.3,6,81.7,17.3z"/>
	<text>	<textPath  xlink:href="#SVGID_x5F_1_x5F_" startOffset="35.6771%">
<tspan  class="st3" style="font-family:'OpenSans-SemiBold'; font-size:15.1px;">Leo Viera – BJJtoken – Leo Viera – BJJtoken –</tspan>	</textPath>
</text>
	<path id="SVGID_x5F_00000052813188983218183380000005006125284361063346_x5F_" class="st7" d="M-150.2,58.2
		c0-26.9,21.8-48.7,48.7-48.7s48.7,21.8,48.7,48.7s-21.8,48.7-48.7,48.7S-150.2,85.1-150.2,58.2z"/>
	<text>	<textPath  xlink:href="#SVGID_x5F_00000052813188983218183380000005006125284361063346_x5F_" startOffset="35.6771%">
<tspan  class="st3" style="font-family:'OpenSans-SemiBold'; font-size:15.1px;">Leo Viera – BJJtoken – Leo Viera – BJJtoken –</tspan>	</textPath>
</text>
</g>
<g id="Layer_4_00000141416593095843923390000007880977802704450491_">
</g>
</svg>
