<?xml version="1.0" encoding="utf-8"?>
<!-- Generator: Adobe Illustrator 26.0.1, SVG Export Plug-In . SVG Version: 6.00 Build 0)  -->
<svg version="1.1" id="Layer_1" xmlns="http://www.w3.org/2000/svg" xmlns:xlink="http://www.w3.org/1999/xlink" x="0px" y="0px"
	 viewBox="0 0 1862.7 458.7" style="enable-background:new 0 0 1862.7 458.7;" xml:space="preserve">
<style type="text/css">
	.st0{fill:#ED2024;}
	.st1{fill:#ED2024;stroke:url(#SVGID_1_);stroke-miterlimit:10;}
	.st2{fill:none;stroke:#FFFFFF;stroke-miterlimit:10;}
	.st3{fill:#FFFFFF;}
</style>
<rect x="1162" y="137.4" class="st0" width="14.5" height="53.1"/>
<linearGradient id="SVGID_1_" gradientUnits="userSpaceOnUse" x1="-0.5" y1="229.3329" x2="1863.1715" y2="229.3329">
	<stop  offset="0" style="stop-color:#FFFFFF"/>
	<stop  offset="1" style="stop-color:#000000"/>
</linearGradient>
<rect class="st1" width="1862.7" height="458.7"/>
<path class="st2" d="M-395.7,591.9"/>
<path class="st2" d="M-343.1,500.9"/>
<path class="st2" d="M-290.5,409.8"/>
<path class="st2" d="M-238,318.8"/>
<path class="st2" d="M-185.4,227.7"/>
<path class="st2" d="M-132.8,136.7"/>
<path class="st2" d="M-80.3,45.6"/>
<path class="st2" d="M-27.7-45.5"/>
<path class="st2" d="M1872.3-53.5"/>
<path class="st2" d="M1924.9,37.6"/>
<path class="st2" d="M1977.5,128.6"/>
<path class="st2" d="M2030.1,219.7"/>
<path class="st2" d="M2082.6,310.7"/>
<path class="st2" d="M2135.2,401.8"/>
<path class="st2" d="M2187.8,492.8"/>
<path class="st2" d="M2240.3,583.9"/>
<path class="st2" d="M3313.8,579.9"/>
<path class="st2" d="M3366.3,670.9"/>
<path class="st2" d="M2398,857.1"/>
<g>
	<path class="st3" d="M439.2,325.9c-5.1,0-9.2-4.1-9.2-9.2c0-5.1,4.1-9.2,9.2-9.2h201.5c18.3,0,33.1-14.9,33.1-33.1
		s-14.9-33.1-33.1-33.1H439.2c-5.1,0-9.2-4.1-9.2-9.2c0-5.1,4.1-9.2,9.2-9.2h201.5c18.3,0,33.1-14.9,33.1-33.1
		c0-18.3-14.9-33.1-33.1-33.1H439.2c-5.1,0-9.2-4.1-9.2-9.2c0-5.1,4.1-9.2,9.2-9.2h201.5c28.4,0,51.5,23.1,51.5,51.5
		c0,16.8-8.4,32.7-22.2,42.3c13.8,9.6,22.2,25.5,22.2,42.3c0,28.4-23.1,51.5-51.5,51.5H439.2z"/>
	<path class="st3" d="M640.7,140.4c27.2,0,49.5,22.3,49.5,49.5c0,17.9-9.6,33.6-23.9,42.3c14.3,8.7,23.9,24.4,23.9,42.3
		c0,27.2-22.3,49.5-49.5,49.5H495.5h-7.8h-48.6c-3.9,0-7.2-3.2-7.2-7.2c0-3.9,3.2-7.2,7.2-7.2h48.6h7.8h145.2
		c19.3,0,35.1-15.8,35.1-35.1c0-19.3-15.8-35.1-35.1-35.1H495.5h-7.8h-48.6c-3.9,0-7.2-3.2-7.2-7.2c0-3.9,3.2-7.2,7.2-7.2h48.6h7.8
		h145.2c19.3,0,35.1-15.8,35.1-35.1c0-19.3-15.8-35.1-35.1-35.1H495.5h-7.8h-48.6c-3.9,0-7.2-3.2-7.2-7.2c0-3.9,3.2-7.2,7.2-7.2
		h48.6h7.8H640.7 M640.7,136.4H495.5h-7.8h-48.6c-6.2,0-11.2,5-11.2,11.2c0,6.2,5,11.2,11.2,11.2h48.6h7.8h145.2
		c17.2,0,31.1,14,31.1,31.1c0,17.2-14,31.1-31.1,31.1H495.5h-7.8h-48.6c-6.2,0-11.2,5-11.2,11.2c0,6.2,5,11.2,11.2,11.2h48.6h7.8
		h145.2c17.2,0,31.1,14,31.1,31.1s-14,31.1-31.1,31.1H495.5h-7.8h-48.6c-6.2,0-11.2,5-11.2,11.2c0,6.2,5,11.2,11.2,11.2h48.6h7.8
		h145.2c29.5,0,53.5-24,53.5-53.5c0-16.5-7.9-32.2-20.9-42.3c13-10.1,20.9-25.8,20.9-42.3C694.2,160.4,670.2,136.4,640.7,136.4
		L640.7,136.4z"/>
</g>
<g>
	<path class="st3" d="M797.1,325.9c-5.1,0-9.2-4.1-9.2-9.2c0-5.1,4.1-9.2,9.2-9.2h170.7c17.4,0,31.9-5.8,43-17.3
		c13.3-13.8,21-35,21-58.1v-84.6c0-5.1,4.1-9.2,9.2-9.2c5.1,0,9.2,4.1,9.2,9.2v84.6c0,24.5-7.3,47.3-20.5,64.3
		c-15,19.3-36.4,29.4-61.8,29.4H797.1z"/>
	<path class="st3" d="M1041,140.4c3.9,0,7.2,3.2,7.2,7.2v84.6c0,45.9-26.8,91.7-80.3,91.7h-67.7h-54.4h-48.6c-3.9,0-7.2-3.2-7.2-7.2
		c0-3.9,3.2-7.2,7.2-7.2h48.6h54.4h67.7c17.1,0,32.5-5.6,44.4-18c15-15.5,21.6-38.3,21.6-59.5v-84.6
		C1033.8,143.6,1037,140.4,1041,140.4 M1041,136.4c-6.2,0-11.2,5-11.2,11.2v84.6c0,22.6-7.4,43.2-20.4,56.7
		c-10.7,11.1-24.7,16.7-41.6,16.7h-67.7h-54.4h-48.6c-6.2,0-11.2,5-11.2,11.2c0,6.2,5,11.2,11.2,11.2h48.6h54.4h67.7
		c26.1,0,48-10.4,63.4-30.2c13.5-17.3,20.9-40.6,20.9-65.5v-84.6C1052.1,141.4,1047.1,136.4,1041,136.4L1041,136.4z"/>
</g>
<g>
	<path class="st3" d="M1152.4,325.9c-5.1,0-9.2-4.1-9.2-9.2c0-5.1,4.1-9.2,9.2-9.2h170.7c17.4,0,31.9-5.8,43-17.3
		c13.3-13.8,21-35,21-58.1v-84.6c0-5.1,4.1-9.2,9.2-9.2c5.1,0,9.2,4.1,9.2,9.2v84.6c0,24.5-7.3,47.3-20.5,64.3
		c-15,19.3-36.4,29.4-61.8,29.4H1152.4z"/>
	<path class="st3" d="M1396.2,140.4c3.9,0,7.2,3.2,7.2,7.2v84.6c0,45.9-26.8,91.7-80.3,91.7h-67.7H1201h-48.6
		c-3.9,0-7.2-3.2-7.2-7.2c0-3.9,3.2-7.2,7.2-7.2h48.6h54.4h67.7c17.1,0,32.5-5.6,44.4-18c15-15.5,21.6-38.3,21.6-59.5v-84.6
		C1389.1,143.6,1392.3,140.4,1396.2,140.4 M1396.2,136.4c-6.2,0-11.2,5-11.2,11.2v84.6c0,22.6-7.4,43.2-20.4,56.7
		c-10.7,11.1-24.7,16.7-41.6,16.7h-67.7H1201h-48.6c-6.2,0-11.2,5-11.2,11.2c0,6.2,5,11.2,11.2,11.2h48.6h54.4h67.7
		c26.1,0,48-10.4,63.4-30.2c13.5-17.3,20.9-40.6,20.9-65.5v-84.6C1407.4,141.4,1402.4,136.4,1396.2,136.4L1396.2,136.4z"/>
</g>
</svg>
