<?xml version="1.0" encoding="utf-8"?>
<!-- Generator: Adobe Illustrator 26.0.1, SVG Export Plug-In . SVG Version: 6.00 Build 0)  -->
<svg version="1.1" id="Layer_1" xmlns="http://www.w3.org/2000/svg" xmlns:xlink="http://www.w3.org/1999/xlink" x="0px" y="0px"
	 viewBox="0 0 1862.7 458.7" style="enable-background:new 0 0 1862.7 458.7;" xml:space="preserve">
<style type="text/css">
	.st0{fill:#FFFFFF;stroke:#FFFFFF;stroke-miterlimit:10;}
	.st1{fill:#ED2024;}
	.st2{fill:#FF000D;}
	.st3{fill:none;stroke:#FFFFFF;stroke-miterlimit:10;}
	.st4{fill:#FFFFFF;stroke:#FFFFFF;stroke-width:5;stroke-miterlimit:10;}
	.st5{fill:#FFFFFF;stroke:#FFFFFF;stroke-width:3;stroke-miterlimit:10;}
	.st6{fill:#FF000D;stroke:#FF000D;stroke-miterlimit:10;}
</style>
<circle class="st0" cx="-2605.8" cy="-994.7" r="1041.8"/>
<rect x="1100.7" y="-695.8" class="st1" width="14.5" height="53.1"/>
<rect x="-61.3" y="-833.2" class="st1" width="1862.7" height="458.7"/>
<rect class="st2" width="1862.7" height="458.7"/>
<path class="st3" d="M-89-878.7"/>
<path class="st3" d="M1811-886.7"/>
<path class="st3" d="M1863.6-795.6"/>
<path class="st3" d="M3313.8,579.9"/>
<path class="st3" d="M3366.3,670.9"/>
<g>
	<g>
		<path class="st4" d="M281.9-566.9c-5.1,0-9.2-4.1-9.2-9.2c0-5.1,4.1-9.2,9.2-9.2h201.5c18.3,0,33.1-14.9,33.1-33.1
			s-14.9-33.1-33.1-33.1H281.9c-5.1,0-9.2-4.1-9.2-9.2c0-5.1,4.1-9.2,9.2-9.2h201.5c18.3,0,33.1-14.9,33.1-33.1
			c0-18.3-14.9-33.1-33.1-33.1H281.9c-5.1,0-9.2-4.1-9.2-9.2s4.1-9.2,9.2-9.2h201.5c28.4,0,51.5,23.1,51.5,51.5
			c0,16.8-8.4,32.7-22.2,42.3c13.8,9.6,22.2,25.5,22.2,42.3c0,28.4-23.1,51.5-51.5,51.5H281.9L281.9-566.9z"/>
	</g>
	<g>
		<path class="st4" d="M483.4-752.4c27.2,0,49.5,22.3,49.5,49.5c0,17.9-9.6,33.6-23.9,42.3c14.3,8.7,23.9,24.4,23.9,42.3
			c0,27.2-22.3,49.5-49.5,49.5H338.2h-7.8h-48.6c-3.9,0-7.2-3.2-7.2-7.2c0-3.9,3.2-7.2,7.2-7.2h48.6h7.8h145.2
			c19.3,0,35.1-15.8,35.1-35.1s-15.8-35.1-35.1-35.1H338.2h-7.8h-48.6c-3.9,0-7.2-3.2-7.2-7.2c0-3.9,3.2-7.2,7.2-7.2h48.6h7.8h145.2
			c19.3,0,35.1-15.8,35.1-35.1S502.7-738,483.4-738H338.2h-7.8h-48.6c-3.9,0-7.2-3.2-7.2-7.2c0-3.9,3.2-7.2,7.2-7.2h48.6h7.8H483.4
			 M483.4-756.4H338.2h-7.8h-48.6c-6.2,0-11.2,5-11.2,11.2s5,11.2,11.2,11.2h48.6h7.8h145.2c17.2,0,31.1,14,31.1,31.1
			c0,17.2-14,31.1-31.1,31.1H338.2h-7.8h-48.6c-6.2,0-11.2,5-11.2,11.2s5,11.2,11.2,11.2h48.6h7.8h145.2c17.2,0,31.1,14,31.1,31.1
			s-14,31.1-31.1,31.1H338.2h-7.8h-48.6c-6.2,0-11.2,5-11.2,11.2s5,11.2,11.2,11.2h48.6h7.8h145.2c29.5,0,53.5-24,53.5-53.5
			c0-16.5-7.9-32.2-20.9-42.3c13-10.1,20.9-25.8,20.9-42.3C536.9-732.4,512.9-756.4,483.4-756.4L483.4-756.4z"/>
	</g>
</g>
<g>
	<path class="st4" d="M715.5-557.2c-5.1,0-9.2-4.1-9.2-9.2c0-5.1,4.1-9.2,9.2-9.2h170.7c17.4,0,31.9-5.8,43-17.3
		c13.3-13.8,21-35,21-58.1v-84.6c0-5.1,4.1-9.2,9.2-9.2s9.2,4.1,9.2,9.2v84.6c0,24.5-7.3,47.3-20.5,64.3
		c-15,19.3-36.4,29.4-61.8,29.4L715.5-557.2L715.5-557.2z"/>
	<path class="st4" d="M959.4-742.7c3.9,0,7.2,3.2,7.2,7.2v84.6c0,45.9-26.8,91.7-80.3,91.7h-67.7h-54.4h-48.6
		c-3.9,0-7.2-3.2-7.2-7.2c0-3.9,3.2-7.2,7.2-7.2h48.6h54.4h67.7c17.1,0,32.5-5.6,44.4-18c15-15.5,21.6-38.3,21.6-59.5v-84.6
		C952.2-739.5,955.4-742.7,959.4-742.7 M959.4-746.7c-6.2,0-11.2,5-11.2,11.2v84.6c0,22.6-7.4,43.2-20.4,56.7
		c-10.7,11.1-24.7,16.7-41.6,16.7h-67.7h-54.4h-48.6c-6.2,0-11.2,5-11.2,11.2s5,11.2,11.2,11.2h48.6h54.4h67.7
		c26.1,0,48-10.4,63.4-30.2c13.5-17.3,20.9-40.6,20.9-65.5v-84.6C970.5-741.7,965.5-746.7,959.4-746.7L959.4-746.7z"/>
</g>
<g>
	<path class="st4" d="M1147.2-558.9c-5.1,0-9.2-4.1-9.2-9.2c0-5.1,4.1-9.2,9.2-9.2h170.7c17.4,0,31.9-5.8,43-17.3
		c13.3-13.8,21-35,21-58.1v-84.6c0-5.1,4.1-9.2,9.2-9.2s9.2,4.1,9.2,9.2v84.6c0,24.5-7.3,47.3-20.5,64.3
		c-15,19.3-36.4,29.4-61.8,29.4L1147.2-558.9L1147.2-558.9L1147.2-558.9z"/>
	<path class="st4" d="M1391-744.4c3.9,0,7.2,3.2,7.2,7.2v84.6c0,45.9-26.8,91.7-80.3,91.7h-67.7h-54.4h-48.6c-3.9,0-7.2-3.2-7.2-7.2
		c0-3.9,3.2-7.2,7.2-7.2h48.6h54.4h67.7c17.1,0,32.5-5.6,44.4-18c15-15.5,21.6-38.3,21.6-59.5v-84.6
		C1383.9-741.2,1387.1-744.4,1391-744.4 M1391-748.4c-6.2,0-11.2,5-11.2,11.2v84.6c0,22.6-7.4,43.2-20.4,56.7
		c-10.7,11.1-24.7,16.7-41.6,16.7h-67.7h-54.3h-48.6c-6.2,0-11.2,5-11.2,11.2s5,11.2,11.2,11.2h48.6h54.4h67.7
		c26.1,0,48-10.4,63.4-30.2c13.5-17.3,20.9-40.6,20.9-65.5v-84.6C1402.2-743.4,1397.2-748.4,1391-748.4L1391-748.4z"/>
</g>
<g>
	<g>
		<path class="st2" d="M-3387.9-786.3c0,3.8-1,7.2-2.9,10.1c-2,2.9-4.6,5.1-7.9,6.7c-3.3,1.6-7,2.4-10.9,2.4h-35.3v-74.4h37
			c3.5,0,6.5,0.9,9.1,2.8c2.5,1.9,4.5,4.2,5.9,7.1c1.4,2.9,2,5.9,2,9.1c0,3.6-0.9,7-2.8,10.2c-1.9,3.2-4.5,5.5-7.9,7.1
			c4.3,1.3,7.6,3.6,10.1,7C-3389.1-794.9-3387.9-790.9-3387.9-786.3z M-3435.5-833.3v24.8h23.7c2.2,0,4.2-0.6,5.9-1.7
			c1.7-1.1,3.1-2.6,4.1-4.5s1.5-3.9,1.5-6.2c0-2.4-0.5-4.5-1.4-6.3s-2.2-3.3-3.9-4.5c-1.6-1.1-3.5-1.7-5.6-1.7h-24.3V-833.3z
			 M-3397.4-787.9c0-2.3-0.5-4.4-1.5-6.4s-2.4-3.5-4.1-4.7c-1.7-1.2-3.7-1.8-5.9-1.8h-26.6v25.6h25.9c2.3,0,4.4-0.6,6.2-1.8
			s3.3-2.7,4.4-4.7C-3398-783.6-3397.4-785.7-3397.4-787.9z"/>
		<path class="st2" d="M-3275.1-778.8c1.3,0.9,3.2,1.8,5.5,2.6s5.1,1.2,8.3,1.2c3.3,0,6-0.5,8.1-1.6s3.7-2.7,4.8-4.9s1.9-5,2.3-8.4
			c0.4-3.4,0.6-7.4,0.6-12v-39.5h9.4v37.5c0,5.5-0.3,10.5-0.8,15.1c-0.6,4.6-1.7,8.5-3.4,11.9s-4.2,5.9-7.5,7.7s-7.7,2.7-13.3,2.7
			c-3.5,0-6.6-0.4-9.2-1.2c-2.7-0.8-5.1-1.9-7.3-3.5L-3275.1-778.8z"/>
		<path class="st2" d="M-3119.6-778.8c1.3,0.9,3.2,1.8,5.5,2.6s5.1,1.2,8.3,1.2c3.3,0,6-0.5,8.1-1.6s3.7-2.7,4.8-4.9s1.9-5,2.3-8.4
			c0.4-3.4,0.6-7.4,0.6-12v-39.5h9.4v37.5c0,5.5-0.3,10.5-0.8,15.1c-0.6,4.6-1.7,8.5-3.4,11.9s-4.2,5.9-7.5,7.7s-7.7,2.7-13.3,2.7
			c-3.5,0-6.6-0.4-9.2-1.2c-2.7-0.8-5.1-1.9-7.3-3.5L-3119.6-778.8z"/>
		<path class="st2" d="M-2905.1-833.1h-25.7v66h-9.4v-66h-25.7v-8.4h60.8L-2905.1-833.1L-2905.1-833.1z"/>
		<path class="st2" d="M-2759.5-766.6c-5.2,0-10-1-14.2-3.1c-4.3-2.1-7.9-4.9-11.1-8.5c-3.1-3.6-5.5-7.6-7.2-12.2
			c-1.7-4.5-2.5-9.1-2.5-13.9c0-5,0.9-9.7,2.7-14.2s4.3-8.5,7.4-12c3.2-3.5,6.9-6.3,11.2-8.4c4.3-2.1,8.9-3.1,13.9-3.1
			c5.2,0,10,1.1,14.2,3.2c4.3,2.2,7.9,5.1,11,8.7c3.1,3.6,5.4,7.7,7.1,12.2c1.7,4.5,2.5,9,2.5,13.7c0,5-0.9,9.7-2.6,14.2
			c-1.7,4.5-4.2,8.5-7.4,12s-6.9,6.3-11.2,8.3C-2749.8-767.6-2754.4-766.6-2759.5-766.6z M-2784.9-804.3c0,3.8,0.6,7.4,1.8,10.9
			s3,6.7,5.2,9.4s4.9,4.9,8.1,6.5c3.1,1.6,6.6,2.4,10.5,2.4c4,0,7.5-0.8,10.7-2.5s5.8-3.9,8-6.7s3.9-5.9,5-9.4
			c1.2-3.5,1.7-7,1.7-10.6c0-3.8-0.6-7.4-1.8-10.9s-3-6.6-5.2-9.4c-2.3-2.8-5-4.9-8.1-6.5s-6.5-2.4-10.3-2.4c-4,0-7.5,0.8-10.7,2.5
			c-3.1,1.6-5.8,3.9-8,6.7s-3.9,5.9-5.1,9.4C-2784.3-811.5-2784.9-807.9-2784.9-804.3z"/>
		<path class="st2" d="M-2606.5-767.1v-74.4h9.4v41.1l38.3-41.2h10.2l-29.9,32.8l31.5,41.7h-10.6l-26.9-36l-12.7,13.2v22.8
			L-2606.5-767.1L-2606.5-767.1z"/>
		<path class="st2" d="M-2382.9-775.5v8.4h-50.5v-74.4h49.6v8.4h-40.1v24.1h34.9v7.9h-34.9v25.7h41V-775.5z"/>
		<path class="st2" d="M-2255.8-824.1v57h-9.4v-74.4h8l45.5,58.1v-58h9.4v74.3h-8.6L-2255.8-824.1z"/>
		<path class="st2" d="M-2082-767.1v-11.7h7.8v11.7H-2082z"/>
		<path class="st2" d="M-1953.9-767.1v-74.4h9.4v74.4H-1953.9z"/>
		<path class="st2" d="M-1791.7-766.6c-5.2,0-10-1-14.2-3.1c-4.3-2.1-7.9-4.9-11.1-8.5c-3.1-3.6-5.5-7.6-7.2-12.2
			c-1.7-4.5-2.5-9.1-2.5-13.9c0-5,0.9-9.7,2.7-14.2c1.8-4.5,4.3-8.5,7.4-12c3.2-3.5,6.9-6.3,11.2-8.4c4.3-2.1,8.9-3.1,13.9-3.1
			c5.2,0,10,1.1,14.2,3.2c4.3,2.2,7.9,5.1,11,8.7c3.1,3.6,5.4,7.7,7.1,12.2s2.5,9,2.5,13.7c0,5-0.9,9.7-2.6,14.2s-4.2,8.5-7.4,12
			c-3.2,3.5-6.9,6.3-11.2,8.3C-1782-767.6-1786.7-766.6-1791.7-766.6z M-1817.2-804.3c0,3.8,0.6,7.4,1.8,10.9c1.2,3.5,3,6.7,5.2,9.4
			s4.9,4.9,8.1,6.5c3.1,1.6,6.6,2.4,10.5,2.4c4,0,7.5-0.8,10.7-2.5s5.8-3.9,8-6.7s3.9-5.9,5-9.4c1.2-3.5,1.7-7,1.7-10.6
			c0-3.8-0.6-7.4-1.8-10.9c-1.2-3.5-3-6.6-5.2-9.4c-2.3-2.8-5-4.9-8.1-6.5s-6.5-2.4-10.3-2.4c-4,0-7.5,0.8-10.7,2.5
			c-3.1,1.6-5.8,3.9-8,6.7s-3.9,5.9-5.1,9.4C-1816.6-811.5-1817.2-807.9-1817.2-804.3z"/>
	</g>
</g>
<g>
	<g>
		<path class="st5" d="M386.3,371.2c0,2.5-0.6,4.8-1.9,6.7c-1.3,1.9-3,3.4-5.2,4.4c-2.2,1.1-4.6,1.6-7.2,1.6h-23.1v-49.4h24.2
			c2.3,0,4.3,0.6,5.9,1.8c1.7,1.2,2.9,2.8,3.8,4.7c0.9,1.9,1.3,3.9,1.3,6c0,2.4-0.6,4.7-1.8,6.8c-1.2,2.1-2.9,3.7-5.2,4.7
			c2.8,0.8,5,2.4,6.6,4.6C385.5,365.5,386.3,368.2,386.3,371.2z M355.1,340v16.5h15.5c1.5,0,2.8-0.4,3.9-1.1s2-1.7,2.7-3
			s1-2.6,1-4.1c0-1.6-0.3-3-0.9-4.2s-1.5-2.2-2.5-3c-1.1-0.7-2.3-1.1-3.7-1.1L355.1,340L355.1,340z M380,370.1c0-1.5-0.3-2.9-1-4.2
			c-0.7-1.3-1.6-2.3-2.7-3.1c-1.1-0.8-2.4-1.2-3.9-1.2H355v17h17c1.5,0,2.9-0.4,4.1-1.2c1.2-0.8,2.2-1.8,2.9-3.1
			C379.7,373,380,371.6,380,370.1z"/>
		<path class="st5" d="M466,376.2c0.9,0.6,2.1,1.2,3.6,1.7s3.3,0.8,5.4,0.8s3.9-0.4,5.3-1.1s2.4-1.8,3.2-3.2
			c0.7-1.4,1.2-3.3,1.5-5.5s0.4-4.9,0.4-8v-26.2h6.2v24.9c0,3.6-0.2,7-0.5,10c-0.4,3-1.1,5.7-2.2,7.9s-2.7,3.9-4.9,5.1
			c-2.2,1.2-5.1,1.8-8.7,1.8c-2.3,0-4.3-0.3-6-0.8s-3.3-1.3-4.8-2.3L466,376.2z"/>
		<path class="st5" d="M573.7,376.2c0.9,0.6,2.1,1.2,3.6,1.7s3.3,0.8,5.4,0.8c2.1,0,3.9-0.4,5.3-1.1c1.4-0.7,2.4-1.8,3.2-3.2
			c0.7-1.4,1.2-3.3,1.5-5.5s0.4-4.9,0.4-8v-26.2h6.2v24.9c0,3.6-0.2,7-0.5,10c-0.4,3-1.1,5.7-2.2,7.9s-2.7,3.9-4.9,5.1
			s-5.1,1.8-8.7,1.8c-2.3,0-4.3-0.3-6-0.8s-3.3-1.3-4.8-2.3L573.7,376.2z"/>
		<path class="st5" d="M719.9,340.2h-16.8V384h-6.2v-43.8h-16.8v-5.6h39.7L719.9,340.2L719.9,340.2z"/>
		<path class="st5" d="M821.1,384.3c-3.4,0-6.5-0.7-9.3-2.1s-5.2-3.3-7.2-5.7c-2-2.4-3.6-5.1-4.7-8.1c-1.1-3-1.6-6.1-1.6-9.2
			c0-3.3,0.6-6.4,1.7-9.4c1.2-3,2.8-5.7,4.9-8c2.1-2.3,4.5-4.2,7.3-5.6s5.8-2.1,9.1-2.1c3.4,0,6.5,0.7,9.3,2.2
			c2.8,1.4,5.2,3.4,7.2,5.8s3.6,5.1,4.7,8.1c1.1,3,1.6,6,1.6,9.1c0,3.3-0.6,6.4-1.7,9.4c-1.1,3-2.8,5.7-4.8,8
			c-2.1,2.3-4.5,4.2-7.3,5.5C827.4,383.6,824.4,384.3,821.1,384.3z M804.4,359.3c0,2.5,0.4,4.9,1.2,7.3c0.8,2.3,1.9,4.4,3.4,6.2
			c1.5,1.8,3.2,3.2,5.3,4.3c2.1,1.1,4.3,1.6,6.9,1.6c2.6,0,4.9-0.6,7-1.7s3.8-2.6,5.2-4.4c1.4-1.9,2.5-3.9,3.3-6.3
			c0.8-2.3,1.1-4.7,1.1-7c0-2.5-0.4-4.9-1.2-7.2c-0.8-2.3-1.9-4.4-3.4-6.2c-1.5-1.8-3.2-3.3-5.3-4.3c-2-1-4.3-1.6-6.7-1.6
			c-2.6,0-4.9,0.5-7,1.6s-3.8,2.6-5.2,4.4c-1.4,1.9-2.5,3.9-3.3,6.2C804.8,354.5,804.4,356.9,804.4,359.3z"/>
		<path class="st5" d="M927.1,384v-49.4h6.2v27.3l25.1-27.4h6.6l-19.5,21.8l20.6,27.6h-6.9L941.6,360l-8.3,8.8V384H927.1z"/>
		<path class="st5" d="M1079.3,378.4v5.6h-33v-49.4h32.4v5.6h-26.2v16h22.8v5.2h-22.8v17L1079.3,378.4L1079.3,378.4z"/>
		<path class="st5" d="M1168.4,346.2V384h-6.2v-49.4h5.2l29.7,38.6v-38.5h6.2V384h-5.6L1168.4,346.2z"/>
		<path class="st5" d="M1288,384v-7.8h5.1v7.8H1288z"/>
		<path class="st5" d="M1377.8,384v-49.4h6.2V384H1377.8z"/>
		<path class="st5" d="M1489.8,384.3c-3.4,0-6.5-0.7-9.3-2.1s-5.2-3.3-7.2-5.7c-2-2.4-3.6-5.1-4.7-8.1s-1.6-6.1-1.6-9.2
			c0-3.3,0.6-6.4,1.7-9.4c1.2-3,2.8-5.7,4.9-8s4.5-4.2,7.3-5.6s5.8-2.1,9.1-2.1c3.4,0,6.5,0.7,9.3,2.2c2.8,1.4,5.2,3.4,7.2,5.8
			s3.6,5.1,4.7,8.1s1.6,6,1.6,9.1c0,3.3-0.6,6.4-1.7,9.4s-2.8,5.7-4.8,8c-2.1,2.3-4.5,4.2-7.3,5.5
			C1496.1,383.6,1493.1,384.3,1489.8,384.3z M1473.1,359.3c0,2.5,0.4,4.9,1.2,7.3c0.8,2.3,1.9,4.4,3.4,6.2c1.5,1.8,3.2,3.2,5.3,4.3
			c2.1,1.1,4.3,1.6,6.9,1.6s4.9-0.6,7-1.7s3.8-2.6,5.2-4.4c1.4-1.9,2.5-3.9,3.3-6.3c0.8-2.3,1.1-4.7,1.1-7c0-2.5-0.4-4.9-1.2-7.2
			c-0.8-2.3-1.9-4.4-3.4-6.2c-1.5-1.8-3.2-3.3-5.3-4.3c-2-1-4.3-1.6-6.7-1.6c-2.6,0-4.9,0.5-7,1.6s-3.8,2.6-5.2,4.4
			c-1.4,1.9-2.5,3.9-3.3,6.2C1473.5,354.5,1473.1,356.9,1473.1,359.3z"/>
	</g>
</g>
<g>
	<g>
		<path class="st0" d="M360.2,281.2c-5.9,0-10.6-4.7-10.6-10.6s4.7-10.6,10.6-10.6H593c21.1,0,38.2-17.2,38.2-38.2
			S614,183.4,593,183.4H360.2c-5.9,0-10.6-4.7-10.6-10.6c0-5.9,4.7-10.6,10.6-10.6H593c21.1,0,38.2-17.2,38.2-38.2
			c0-21.1-17.2-38.2-38.2-38.2H360.2c-5.9,0-10.6-4.7-10.6-10.6s4.7-10.6,10.6-10.6H593c32.8,0,59.5,26.7,59.5,59.5
			c0,19.4-9.7,37.8-25.6,48.9c15.9,11.1,25.6,29.5,25.6,48.9c0,32.8-26.7,59.5-59.5,59.5L360.2,281.2L360.2,281.2z"/>
	</g>
	<g>
		<path class="st0" d="M593,66.9c31.4,0,57.2,25.8,57.2,57.2c0,20.7-11.1,38.8-27.6,48.9c16.5,10.1,27.6,28.2,27.6,48.9
			c0,31.4-25.8,57.2-57.2,57.2H425.2h-9H360c-4.5,0-8.3-3.7-8.3-8.3c0-4.5,3.7-8.3,8.3-8.3h56.1h9H593c22.3,0,40.6-18.3,40.6-40.6
			s-18.3-40.6-40.6-40.6H425.2h-9H360c-4.5,0-8.3-3.7-8.3-8.3c0-4.5,3.7-8.3,8.3-8.3h56.1h9H593c22.3,0,40.6-18.3,40.6-40.6
			S615.2,83.5,593,83.5H425.2h-9H360c-4.5,0-8.3-3.7-8.3-8.3c0-4.5,3.7-8.3,8.3-8.3h56.1h9L593,66.9 M593,62.2H425.2h-9H360
			c-7.2,0-12.9,5.8-12.9,12.9c0,7.2,5.8,12.9,12.9,12.9h56.1h9H593c19.9,0,35.9,16.2,35.9,35.9c0,19.9-16.2,35.9-35.9,35.9H425.2h-9
			H360c-7.2,0-12.9,5.8-12.9,12.9s5.8,12.9,12.9,12.9h56.1h9H593c19.9,0,35.9,16.2,35.9,35.9c0,19.8-16.2,35.9-35.9,35.9H425.2h-9
			H360c-7.2,0-12.9,5.8-12.9,12.9s5.8,12.9,12.9,12.9h56.1h9H593c34.1,0,61.8-27.7,61.8-61.8c0-19.1-9.1-37.2-24.1-48.9
			c15-11.7,24.1-29.8,24.1-48.9C654.8,90,627,62.2,593,62.2L593,62.2z"/>
	</g>
</g>
<g>
	<path class="st0" d="M786.3,281.2c-5.9,0-10.6-4.7-10.6-10.6s4.7-10.6,10.6-10.6h197.2c20.1,0,36.9-6.7,49.7-20
		c15.4-15.9,24.3-40.4,24.3-67.1V75.1c0-5.9,4.7-10.6,10.6-10.6s10.6,4.7,10.6,10.6v97.7c0,28.3-8.4,54.6-23.7,74.3
		c-17.3,22.3-42.1,34-71.4,34H786.3V281.2z"/>
	<path class="st0" d="M1068.1,66.9c4.5,0,8.3,3.7,8.3,8.3v97.7c0,53-31,105.9-92.8,105.9h-78.2h-62.8h-56.1c-4.5,0-8.3-3.7-8.3-8.3
		c0-4.5,3.7-8.3,8.3-8.3h56.1h62.8h78.2c19.8,0,37.5-6.5,51.3-20.8c17.3-17.9,25-44.2,25-68.7V74.9
		C1059.7,70.6,1063.4,66.9,1068.1,66.9 M1068.1,62.2c-7.2,0-12.9,5.8-12.9,12.9v97.7c0,26.1-8.5,49.9-23.6,65.5
		c-12.4,12.8-28.5,19.3-48.1,19.3h-78.2h-62.8h-56.1c-7.2,0-12.9,5.8-12.9,12.9s5.8,12.9,12.9,12.9h56.1h62.8h78.2
		c30.2,0,55.5-12,73.2-34.9c15.6-20,24.1-46.9,24.1-75.7V75.3C1080.9,68,1075.1,62.2,1068.1,62.2L1068.1,62.2z"/>
</g>
<g>
	<path class="st0" d="M1212.9,281.2c-5.9,0-10.6-4.7-10.6-10.6s4.7-10.6,10.6-10.6h197.2c20.1,0,36.9-6.7,49.7-20
		c15.4-15.9,24.3-40.4,24.3-67.1V75.1c0-5.9,4.7-10.6,10.6-10.6s10.6,4.7,10.6,10.6v97.7c0,28.3-8.4,54.6-23.7,74.3
		c-17.3,22.3-42.1,34-71.4,34h-197.3L1212.9,281.2L1212.9,281.2z"/>
	<path class="st0" d="M1494.7,66.9c4.5,0,8.3,3.7,8.3,8.3v97.7c0,53-31,105.9-92.8,105.9H1332h-62.8h-56.1c-4.5,0-8.3-3.7-8.3-8.3
		c0-4.5,3.7-8.3,8.3-8.3h56.1h62.8h78.2c19.8,0,37.5-6.5,51.3-20.8c17.3-17.9,25-44.2,25-68.7V74.9
		C1486.4,70.6,1490.1,66.9,1494.7,66.9 M1494.7,62.2c-7.2,0-12.9,5.8-12.9,12.9v97.7c0,26.1-8.5,49.9-23.6,65.5
		c-12.4,12.8-28.5,19.3-48.1,19.3h-78.2h-62.8H1213c-7.2,0-12.9,5.8-12.9,12.9s5.8,12.9,12.9,12.9h56.1h62.8h78.2
		c30.2,0,55.5-12,73.2-34.9c15.6-20,24.1-46.9,24.1-75.7V75.3C1507.5,68,1501.8,62.2,1494.7,62.2L1494.7,62.2z"/>
</g>
<g>
	<g>
		<path class="st6" d="M-3434.9-969.9c-8.6,0-15.4-6.9-15.4-15.4s6.9-15.4,15.4-15.4h337.9c30.7,0,55.5-25,55.5-55.5
			s-25-55.5-55.5-55.5h-337.9c-8.6,0-15.4-6.9-15.4-15.4s6.9-15.4,15.4-15.4h337.9c30.7,0,55.5-25,55.5-55.5
			c0-30.7-25-55.5-55.5-55.5h-337.9c-8.6,0-15.4-6.9-15.4-15.4s6.9-15.4,15.4-15.4h337.9c47.6,0,86.4,38.7,86.4,86.4
			c0,28.2-14.1,54.8-37.2,70.9c23.1,16.1,37.2,42.8,37.2,70.9c0,47.6-38.7,86.4-86.4,86.4L-3434.9-969.9L-3434.9-969.9z"/>
	</g>
	<g>
		<path class="st6" d="M-3097-1281c45.6,0,83,37.4,83,83c0,30-16.1,56.3-40.1,70.9c24,14.6,40.1,40.9,40.1,70.9
			c0,45.6-37.4,83-83,83h-243.5h-13.1h-81.5c-6.5,0-12.1-5.4-12.1-12.1c0-6.5,5.4-12.1,12.1-12.1h81.5h13.1h243.5
			c32.4,0,58.9-26.5,58.9-58.9s-26.5-58.9-58.9-58.9h-243.5h-13.1h-81.5c-6.5,0-12.1-5.4-12.1-12.1c0-6.5,5.4-12.1,12.1-12.1h81.5
			h13.1h243.5c32.4,0,58.9-26.5,58.9-58.9s-26.5-58.9-58.9-58.9h-243.5h-13.1h-81.5c-6.5,0-12.1-5.4-12.1-12.1
			c0-6.5,5.4-12.1,12.1-12.1h81.5h13.1L-3097-1281 M-3097-1287.7h-243.5h-13.1h-81.5c-10.4,0-18.8,8.4-18.8,18.8s8.4,18.8,18.8,18.8
			h81.5h13.1h243.5c28.8,0,52.2,23.5,52.2,52.2c0,28.8-23.5,52.2-52.2,52.2h-243.5h-13.1h-81.5c-10.4,0-18.8,8.4-18.8,18.8
			s8.4,18.8,18.8,18.8h81.5h13.1h243.5c28.8,0,52.2,23.5,52.2,52.2s-23.5,52.2-52.2,52.2h-243.5h-13.1h-81.5
			c-10.4,0-18.8,8.4-18.8,18.8c0,10.4,8.4,18.8,18.8,18.8h81.5h13.1h243.5c49.5,0,89.7-40.2,89.7-89.7c0-27.7-13.2-54-35.1-70.9
			c21.8-16.9,35.1-43.3,35.1-70.9C-3007.3-1247.5-3047.5-1287.7-3097-1287.7L-3097-1287.7z"/>
	</g>
</g>
<g>
	<path class="st6" d="M-2803.3-953.7c-8.6,0-15.4-6.9-15.4-15.4c0-8.6,6.9-15.4,15.4-15.4h286.3c29.2,0,53.5-9.7,72.1-29
		c22.3-23.1,35.2-58.7,35.2-97.4v-141.9c0-8.6,6.9-15.4,15.4-15.4s15.4,6.9,15.4,15.4v141.9c0,41.1-12.2,79.3-34.4,107.8
		c-25.2,32.4-61,49.3-103.6,49.3h-286.4V-953.7z"/>
	<path class="st6" d="M-2394.3-1264.7c6.5,0,12.1,5.4,12.1,12.1v141.9c0,77-44.9,153.8-134.7,153.8h-113.5h-91.2h-81.5
		c-6.5,0-12.1-5.4-12.1-12.1c0-6.5,5.4-12.1,12.1-12.1h81.5h91.2h113.5c28.7,0,54.5-9.4,74.5-30.2c25.2-26,36.2-64.2,36.2-99.8
		V-1253C-2406.4-1259.4-2401-1264.7-2394.3-1264.7 M-2394.3-1271.5c-10.4,0-18.8,8.4-18.8,18.8v141.9c0,37.9-12.4,72.4-34.2,95.1
		c-17.9,18.6-41.4,28-69.8,28h-113.5h-91.2h-81.5c-10.4,0-18.8,8.4-18.8,18.8c0,10.4,8.4,18.8,18.8,18.8h81.5h91.2h113.5
		c43.8,0,80.5-17.4,106.3-50.6c22.6-29,35.1-68.1,35.1-109.8v-141.9C-2375.7-1263.1-2384-1271.5-2394.3-1271.5L-2394.3-1271.5z"/>
</g>
<g>
	<path class="st6" d="M-2188.6-953.7c-8.6,0-15.4-6.9-15.4-15.4c0-8.6,6.9-15.4,15.4-15.4h286.3c29.2,0,53.5-9.7,72.1-29
		c22.3-23.1,35.2-58.7,35.2-97.4v-141.9c0-8.6,6.9-15.4,15.4-15.4s15.4,6.9,15.4,15.4v141.9c0,41.1-12.2,79.3-34.4,107.8
		c-25.2,32.4-61,49.3-103.6,49.3h-286.4V-953.7z"/>
	<path class="st6" d="M-1779.6-1264.7c6.5,0,12.1,5.4,12.1,12.1v141.9c0,77-44.9,153.8-134.7,153.8h-113.5h-91.2h-81.5
		c-6.5,0-12.1-5.4-12.1-12.1c0-6.5,5.4-12.1,12.1-12.1h81.5h91.2h113.5c28.7,0,54.5-9.4,74.5-30.2c25.2-26,36.2-64.2,36.2-99.8
		V-1253C-1791.7-1259.4-1786.3-1264.7-1779.6-1264.7 M-1779.6-1271.5c-10.4,0-18.8,8.4-18.8,18.8v141.9c0,37.9-12.4,72.4-34.2,95.1
		c-17.9,18.6-41.4,28-69.8,28h-113.5h-91.2h-81.5c-10.4,0-18.8,8.4-18.8,18.8c0,10.4,8.4,18.8,18.8,18.8h81.5h91.2h113.5
		c43.8,0,80.5-17.4,106.3-50.6c22.6-29,35.1-68.1,35.1-109.8v-141.9C-1761-1263.1-1769.4-1271.5-1779.6-1271.5L-1779.6-1271.5z"/>
</g>
</svg>
