<?xml version="1.0" encoding="utf-8"?>
<!-- Generator: Adobe Illustrator 26.0.1, SVG Export Plug-In . SVG Version: 6.00 Build 0)  -->
<svg version="1.1" id="Layer_1" xmlns="http://www.w3.org/2000/svg" xmlns:xlink="http://www.w3.org/1999/xlink" x="0px" y="0px"
	 viewBox="0 0 1862.7 458.7" style="enable-background:new 0 0 1862.7 458.7;" xml:space="preserve">
<style type="text/css">
	.st0{fill:#ED2024;}
	.st1{fill:#ED2024;stroke:url(#SVGID_1_);stroke-miterlimit:10;}
	.st2{fill:#FFFFFF;}
</style>
<rect x="1162" y="137.4" class="st0" width="14.5" height="53.1"/>
<linearGradient id="SVGID_1_" gradientUnits="userSpaceOnUse" x1="-0.5" y1="229.3329" x2="1863.1715" y2="229.3329">
	<stop  offset="0" style="stop-color:#FFFFFF"/>
	<stop  offset="1" style="stop-color:#000000"/>
</linearGradient>
<rect class="st1" width="1862.7" height="458.7"/>
<path class="st2" d="M495.5,306.6h145.2c19.3,0,35.1-15.8,35.1-35.1c0-19.3-15.8-35.1-35.1-35.1H495.5h-7.8h-48.6
	c-3.9,0-7.2-3.2-7.2-7.2c0-3.9,3.2-7.2,7.2-7.2h48.6h7.8h145.2c19.3,0,35.1-15.8,35.1-35.1c0-19.3-15.8-35.1-35.1-35.1H495.5h-7.8
	h-48.6c-3.9,0-7.2-3.2-7.2-7.2c0-3.9,3.2-7.2,7.2-7.2h48.6h7.8h145.2c27.2,0,49.5,22.3,49.5,49.5c0,17.9-9.6,33.6-23.9,42.3
	c14.3,8.7,23.9,24.4,23.9,42.3c0,27.2-22.3,49.5-49.5,49.5H495.5h-7.8h-48.6c-3.9,0-7.2-3.2-7.2-7.2c0-3.9,3.2-7.2,7.2-7.2h48.6
	H495.5z"/>
<path class="st2" d="M1012.2,288.6c15-15.5,21.6-38.3,21.6-59.5v-84.6c0-3.9,3.2-7.2,7.2-7.2c3.9,0,7.2,3.2,7.2,7.2v84.6
	c0,45.9-26.8,91.7-80.3,91.7h-67.7h-54.4h-48.6c-3.9,0-7.2-3.2-7.2-7.2c0-3.9,3.2-7.2,7.2-7.2h48.6h54.4h67.7
	C984.9,306.6,1000.2,301,1012.2,288.6z"/>
<path class="st2" d="M1367.5,288.6c15-15.5,21.6-38.3,21.6-59.5v-84.6c0-3.9,3.2-7.2,7.2-7.2c3.9,0,7.2,3.2,7.2,7.2v84.6
	c0,45.9-26.8,91.7-80.3,91.7h-67.7H1201h-48.6c-3.9,0-7.2-3.2-7.2-7.2c0-3.9,3.2-7.2,7.2-7.2h48.6h54.4h67.7
	C1340.2,306.6,1355.5,301,1367.5,288.6z"/>
</svg>
