<?xml version="1.0" encoding="utf-8"?>
<!-- Generator: Adobe Illustrator 26.0.1, SVG Export Plug-In . SVG Version: 6.00 Build 0)  -->
<svg version="1.1" id="Layer_1" xmlns="http://www.w3.org/2000/svg" xmlns:xlink="http://www.w3.org/1999/xlink" x="0px" y="0px"
	 viewBox="0 0 132.2 132.5" style="enable-background:new 0 0 132.2 132.5;" xml:space="preserve">
<style type="text/css">
	.st0{fill-rule:evenodd;clip-rule:evenodd;fill:none;stroke:#FFFFFF;stroke-width:1.8281;stroke-miterlimit:10;}
</style>
<g id="Icon_172">
	<g>
		<path class="st0" d="M122.4,3.8c-7.9,0.2-15.3,1.8-21.7,4.5L90.6,26.9c5-3.4,11.1-6,17.7-7.3L122.4,3.8z M105.6,42.3l18.9-9.5
			c2.8-6.4,4.6-13.7,5.1-21.6l-16.2,13.7C111.9,31.5,109.2,37.4,105.6,42.3z"/>
		<path class="st0" d="M127.4,64.6c-2-0.2-3.4-1.9-3.3-3.7c0.1-1.8,1.7-3.3,3.6-3.4c2-0.1,3.6,1.6,3.5,3.7
			C131.2,63.4,129.4,64.9,127.4,64.6z"/>
		<path class="st0" d="M120.9,84.8c-1.7-1-2.4-3.1-1.6-4.7c0.8-1.6,2.8-2.4,4.7-1.7c1.9,0.7,2.7,2.9,1.8,4.8
			C124.9,85.1,122.6,85.8,120.9,84.8z"/>
	</g>
	<g>
		<path class="st0" d="M96.5,128.1c3.7-7,6.1-14.1,7-21.1L92.4,89c0.5,6.1-0.3,12.5-2.5,19L96.5,128.1z M71.6,94.2l-1.2,21.1
			c4.1,5.7,9.6,10.9,16.1,15.2l-3.7-20.8C77.9,105.1,74.1,99.8,71.6,94.2z"/>
		<path class="st0" d="M41.4,102c1.2-1.6,3.4-2,4.9-1c0.8,0.5,1.3,1.3,1.5,2.1c0.2,0.9,0.1,1.8-0.4,2.7c-0.5,0.9-1.3,1.5-2.2,1.7
			c-0.9,0.2-1.9,0.1-2.8-0.5C40.6,105.9,40.2,103.6,41.4,102z"/>
		<path class="st0" d="M27.1,86.3c0.8-0.5,1.8-0.6,2.7-0.4c0.9,0.2,1.7,0.6,2.2,1.4c1,1.5,0.7,3.7-0.8,4.9c-1.5,1.3-3.8,0.9-5.1-0.8
			c-0.6-0.9-0.8-1.9-0.6-2.8C25.7,87.6,26.3,86.8,27.1,86.3z"/>
	</g>
	<g>
		<path class="st0" d="M1.9,43.5c4.1,6.7,9.2,12.3,14.8,16.6l21.2-0.6c-5.5-2.7-10.7-6.6-15.2-11.7L1.9,43.5z M43.6,38.8L25.9,27.2
			c-7,0.7-14.2,2.9-21.3,6.4l19.9,7.2C31.1,38.8,37.6,38.2,43.6,38.8z"/>
		<path class="st0" d="M52,8.8c0.8,1.8,0,3.9-1.6,4.7c-1.6,0.8-3.7,0.2-4.7-1.4c-1-1.7-0.4-4,1.5-4.9C49.1,6.2,51.3,6.9,52,8.8z"/>
		<path class="st0" d="M72.8,4.3c0,2-1.5,3.6-3.3,3.8c-1.8,0.1-3.5-1.2-3.8-3.2c-0.3-2,1.1-3.8,3.2-4C71,0.8,72.8,2.4,72.8,4.3z"/>
	</g>
</g>
</svg>
