<?xml version="1.0" encoding="utf-8"?>
<!-- Generator: Adobe Illustrator 26.0.1, SVG Export Plug-In . SVG Version: 6.00 Build 0)  -->
<svg version="1.1" id="Layer_1" xmlns="http://www.w3.org/2000/svg" xmlns:xlink="http://www.w3.org/1999/xlink" x="0px" y="0px"
	 viewBox="0 0 573.7 600.8" style="enable-background:new 0 0 573.7 600.8;" xml:space="preserve">
<style type="text/css">
	.st0{fill:url(#SVGID_1_);}
	.st1{fill:#FFFFFF;}
</style>
<g>
	
		<linearGradient id="SVGID_1_" gradientUnits="userSpaceOnUse" x1="507.4729" y1="446.787" x2="-276.8834" y2="-14.599" gradientTransform="matrix(1 0 0 -1 0 617.4435)">
		<stop  offset="0" style="stop-color:#EC1E24"/>
		<stop  offset="1" style="stop-color:#EC1E24"/>
	</linearGradient>
	<circle class="st0" cx="286.9" cy="300.4" r="253.6"/>
	<path class="st1" d="M428.7,300.4c17.4-12.7,27.8-33,27.8-54.4c0-37.1-30.2-67.2-67.2-67.2H130.1c-7.2,0-12.8,5.6-12.8,12.8
		s5.6,12.8,12.8,12.8h259.2c22.9,0,41.5,18.6,41.5,41.5s-18.6,41.5-41.5,41.5H130.1c-7.2,0-12.8,5.6-12.8,12.8
		c0,7.2,5.6,12.8,12.8,12.8h259.2c22.9,0,41.5,18.7,41.5,41.8c0,22.9-18.6,41.5-41.5,41.5H130.1c-7.2,0-12.8,5.6-12.8,12.8
		s5.6,12.8,12.8,12.8l259.2,0.2c37.1,0,67.2-30.2,67.2-67.2C456.5,333.4,446.2,313.2,428.7,300.4z"/>
	<g>
		<path class="st1" d="M201,237.9c-2.3,0-4.5,0.9-6.2,2.6c-1.6,1.6-2.4,3.7-2.4,6s0.8,4.4,2.4,6l0.1,0.1c1.6,1.6,3.7,2.4,6,2.4
			s4.3-0.8,6-2.4c1.7-1.7,2.5-3.8,2.5-6.1c0-2.3-0.9-4.4-2.5-6C205.4,238.8,203.3,237.9,201,237.9z"/>
		<path class="st1" d="M265.5,237.9h-30.3c-2.3,0-4.4,0.9-6.2,2.6c-1.6,1.6-2.4,3.7-2.4,6s0.8,4.4,2.4,6l0.1,0.1
			c1.6,1.6,3.7,2.4,6,2.4h30.3c2.3,0,4.3-0.8,6-2.4c1.7-1.7,2.5-3.8,2.5-6.1c0-2.3-0.9-4.4-2.5-6
			C269.9,238.8,267.8,237.9,265.5,237.9z"/>
		<path class="st1" d="M399.3,240.5c-1.7-1.6-3.7-2.5-6-2.5H363c-2.3,0-4.4,0.9-6.2,2.6c-1.6,1.6-2.4,3.7-2.4,6s0.8,4.4,2.4,6
			l0.1,0.1c1.6,1.6,3.7,2.4,6,2.4h30.3c2.3,0,4.3-0.8,6-2.4c1.7-1.7,2.5-3.8,2.5-6.1C401.8,244.2,400.9,242.1,399.3,240.5z"/>
		<path class="st1" d="M328.7,237.9h-30.3c-2.3,0-4.4,0.9-6.2,2.6c-1.6,1.6-2.4,3.7-2.4,6s0.8,4.4,2.4,6l0.1,0.1
			c1.6,1.6,3.7,2.4,6,2.4h30.3c2.3,0,4.3-0.8,6-2.4c1.7-1.7,2.5-3.8,2.5-6.1c0-2.3-0.9-4.4-2.5-6C333.1,238.8,331,237.9,328.7,237.9
			z"/>
	</g>
	<g>
		<path class="st1" d="M201,347.6c-2.3,0-4.5,0.9-6.2,2.6c-1.6,1.6-2.4,3.7-2.4,6s0.8,4.4,2.4,6l0.1,0.1c1.6,1.6,3.7,2.4,6,2.4
			s4.3-0.8,6-2.4s2.5-3.8,2.5-6.1c0-2.3-0.9-4.4-2.5-6C205.4,348.4,203.3,347.6,201,347.6z"/>
		<path class="st1" d="M265.5,347.6h-30.3c-2.3,0-4.5,0.9-6.2,2.6c-1.6,1.6-2.4,3.7-2.4,6s0.8,4.4,2.4,6l0.1,0.1
			c1.6,1.6,3.7,2.4,6,2.4h30.3c2.3,0,4.3-0.8,6-2.4s2.5-3.8,2.5-6.1c0-2.3-0.9-4.4-2.5-6C269.9,348.4,267.8,347.6,265.5,347.6z"/>
		<path class="st1" d="M399.3,350.1c-1.7-1.6-3.7-2.5-6-2.5H363c-2.3,0-4.4,0.9-6.2,2.6c-1.6,1.6-2.4,3.7-2.4,6s0.8,4.4,2.4,6
			l0.1,0.1c1.6,1.6,3.7,2.4,6,2.4h30.3c2.3,0,4.3-0.8,6-2.4s2.5-3.8,2.5-6.1C401.8,353.8,400.9,351.7,399.3,350.1z"/>
		<path class="st1" d="M328.7,347.6h-30.3c-2.3,0-4.5,0.9-6.2,2.6c-1.6,1.6-2.4,3.7-2.4,6s0.8,4.4,2.4,6l0.1,0.1
			c1.6,1.6,3.7,2.4,6,2.4h30.3c2.3,0,4.3-0.8,6-2.4c1.7-1.6,2.5-3.8,2.5-6.1c0-2.3-0.9-4.4-2.5-6C333.1,348.4,331,347.6,328.7,347.6
			z"/>
	</g>
</g>
</svg>
